<?xml version="1.0" encoding="utf-8"?>
<!-- Generator: Adobe Illustrator 27.9.5, SVG Export Plug-In . SVG Version: 9.03 Build 54986)  -->
<svg version="1.1" id="svg4977" xmlns:svg="http://www.w3.org/2000/svg"
	 xmlns="http://www.w3.org/2000/svg" xmlns:xlink="http://www.w3.org/1999/xlink" x="0px" y="0px" viewBox="0 0 682.7 682.7"
	 style="enable-background:new 0 0 682.7 682.7;" xml:space="preserve">
<style type="text/css">
	.st0{fill:none;stroke:#000000;stroke-width:26.9013;stroke-linecap:round;stroke-linejoin:round;stroke-miterlimit:13.3333;}
	.st1{clip-path:url(#SVGID_00000024684619520092060710000004874304283769757857_);}
</style>
<g id="g4983" transform="matrix(1.3333333,0,0,-1.3333333,0,682.66667)">
	<g id="g4985" transform="translate(323.915,66.5215)">
		<path id="path4987" class="st0" d="M-2.9,8.1l54,262.7H-69.4h-120.5l54.1-262.7H-2.9z"/>
	</g>
	<g id="g4989">
		<g>
			<defs>
				<rect id="SVGID_1_" x="-70.7" y="-70.7" width="653.3" height="653.3"/>
			</defs>
			<clipPath id="SVGID_00000053536808142670107620000007780280608193472440_">
				<use xlink:href="#SVGID_1_"  style="overflow:visible;"/>
			</clipPath>
			<g id="g4991" style="clip-path:url(#SVGID_00000053536808142670107620000007780280608193472440_);">
				<g id="g4997" transform="translate(185.1089,66.5215)">
					<path id="path4999" class="st0" d="M3,8.1C-16.6-2.4-27.1-26.8-26.3-46h191.6c0.8,19.2-9.7,43.6-29.4,54.1"/>
				</g>
				<g id="g5001" transform="translate(213.0288,118.168)">
					<path id="path5003" class="st0" d="M1.8,5.9L-22,180.3"/>
				</g>
				<g id="g5005" transform="translate(295.9668,118.168)">
					<path id="path5007" class="st0" d="M-1.7,5.9l23.8,174.4"/>
				</g>
				<g id="g5009" transform="translate(254.4976,256.0146)">
					<path id="path5011" class="st0" d="M0.1,0v42.4 M0.1-131.9v44.2"/>
				</g>
				<g id="g5013" transform="translate(165.5791,415.8281)">
					<path id="path5015" class="st0" d="M3.9-6.9l-28.9,82.5h-51.7"/>
				</g>
				<g id="g5017" transform="translate(382.5332,448.8799)">
					<path id="path5019" class="st0" d="M-5.4-8.3C-19.1,0.3-37-3.8-45.6-17.4C-54.2-31-50.2-49-36.6-57.6
						c13.6-8.6,31.6-4.5,40.2,9.1C12.2-34.9,8.2-16.9-5.4-8.3z"/>
				</g>
				<g id="g5021" transform="translate(165.5791,415.8281)">
					<path id="path5023" class="st0" d="M3.9-6.9c21.8,20,39.4,44,35.4,82.5c54.3-14.8,67-42,68.3-75.4 M176.4,21.8
						c-23.7,21.8-63,16.3-74.4,5.1 M209.5-78.4c11.3,20.5,9.2,41.3,0.6,53 M-31.5-78.4C-54-11.3,18.2,13.5,45.6-23.6"/>
				</g>
				<g id="g5025" transform="translate(382.5332,448.8799)">
					<path id="path5027" class="st0" d="M-5.4-8.3C9.6,8.7,22,16,40.6,4.3"/>
				</g>
				<g id="g5029" transform="translate(254.4976,209.2998)">
					<path id="path5031" class="st0" d="M0.1,2L0.1,2"/>
				</g>
			</g>
		</g>
	</g>
</g>
</svg>
