<?xml version="1.0" encoding="UTF-8"?>
<svg id="Capa_1" data-name="Capa 1" xmlns="http://www.w3.org/2000/svg" version="1.1" viewBox="0 0 512 512">
  <defs>
    <style>
      .cls-1 {
        fill: #000;
        stroke-width: 0px;
      }
    </style>
  </defs>
  <path class="cls-1" d="M465.5,326.8h-1.4c34.4-60.2,24.7-136.6-25.3-186.6l-5.6-5.6-64.7,64.7,4.3-22.6c.8-4.3,1.3-8.8,1.3-13.3v-1.9c0-20.3-8.6-38.6-22.4-51.5l33.4-44.5c3.8-5,5.4-11.3,4.5-17.5-.9-6.2-4.2-11.8-9.2-15.5-10-7.5-25.5-5.3-33.1,4.7l-20.5,27.3v-28.9c0-13-10.6-23.6-23.6-23.6s-23.6,10.6-23.6,23.6v28.9l-20.5-27.3c-7.5-10-23-12.2-33.1-4.7-5,3.8-8.3,9.3-9.2,15.6-.9,6.2.7,12.5,4.5,17.5l33.4,44.5c-13.7,12.9-22.4,31.2-22.4,51.5v1.9c0,4.5.4,8.9,1.3,13.3l10.7,56.4c-9.7,1.1-19,3.5-27.7,7.2v-44.1c0-9.4-4.1-18.2-11.3-24.2l-35.9-29.9v-43.5c0-13-10.6-23.6-23.6-23.6h-63c-13,0-23.6,10.6-23.6,23.6v43.5l-35.9,29.9c-7.2,6-11.3,14.8-11.3,24.2v36.2c0,9.4,4.3,17.8,10.9,23.6-6.6,5.8-10.9,14.2-10.9,23.6v47.2c0,9.5,4.3,17.8,10.9,23.6-6.6,5.8-10.9,14.2-10.9,23.6v94.5c0,17.4,14.1,31.5,31.5,31.5h271.8c80.8,0,154.2-50.8,182.6-126.5,1.5-3.9,2.2-8,2.2-12.1,0-19-15.5-34.5-34.5-34.5h0ZM484,358.3H91c1.5-8.9,9.2-15.7,18.5-15.7h356c9.3,0,17,6.8,18.5,15.7ZM106.5,271.7c0,8.1-4.1,15.3-10.3,19.5,0,0,0,0,0,0-1.2.8-2.5,1.5-3.8,2.1,0,0-.1,0-.2.1-1.2.5-2.5.9-3.8,1.2-.2,0-.5.2-.7.2-1.5.3-3.1.5-4.7.5-13,0-23.6-10.6-23.6-23.6s5.1-17,13.2-21.1l6-3-1.9-6.4c-1-3.4-1.5-6.3-1.5-9,0-17.4,14.1-31.5,31.5-31.5s13.1,2.2,18.5,6.1c-11.1,7-18.5,19.2-18.5,33.2h15.7c0-11.1,7.7-20.3,17.9-22.8h.2c.7-.2,1.3-.3,1.9-.4,1.2-.2,2.4-.4,3.6-.4,13,0,23.6,10.6,23.6,23.6s-2.5,12.2-6.9,16.7l-5.6,5.6,14.6,14.6c-9.8,14.4-16,31.4-17.4,49.7h-5l-33.4-33.4c4.1-6.2,6.6-13.7,6.6-21.7h-15.7,0ZM342.2,326.8h-172.4c4-44.1,41.1-78.7,86.2-78.7s82.2,34.6,86.2,78.7ZM334.1,256h102.5c-1.9,26.7-13.6,52-32.8,70.8h-45.9c-1.9-25.2-13-47.9-29.9-64.7l6.1-6.1ZM349.9,240.3l62-62c14.6,17.7,23.2,39.2,24.8,62h-86.8ZM445.5,326.8h-20.6c17.8-22.2,27.9-50,27.9-78.7s-10.6-58.3-29.8-81l10-10c42.2,47.2,47.4,116.7,12.5,169.7ZM359.9,46.6c2.5-3.3,7.7-4.1,11-1.6,1.7,1.3,2.8,3.1,3.1,5.2.3,2.1-.2,4.1-1.5,5.8l-33.4,44.5c-3.9-2.3-8-4.2-12.3-5.7v-4.1l33.1-44.1ZM303.2,27.7c4.3,0,7.9,3.5,7.9,7.9v55.6c-2.6-.3-5.2-.5-7.9-.5s-5.3.2-7.9.5v-55.6c0-4.3,3.5-7.9,7.9-7.9ZM233.9,56.1c-1.3-1.7-1.8-3.7-1.5-5.8.3-2.1,1.4-3.9,3.1-5.2,3.3-2.5,8.5-1.8,11,1.6l33.1,44.1v4.1c-4.3,1.5-8.4,3.4-12.3,5.7l-33.4-44.5ZM248.1,161.5c0-30.4,24.7-55.1,55.1-55.1s55.1,24.7,55.1,55.1v1.9c0,3.5-.3,6.9-1,10.3l-8.6,45.4-32.8,32.8c-15.8-11.4-34.9-18.5-55.6-19.3l-11.2-58.8c-.6-3.4-1-6.8-1-10.3v-1.9ZM75,122.2h78.7v15.7h-78.7v-15.7ZM82.8,90.7h63c4.3,0,7.9,3.5,7.9,7.9v7.9h-78.7v-7.9c0-4.3,3.5-7.9,7.9-7.9ZM27.7,232.4v-36.2c0-4.7,2.1-9.1,5.7-12.1l36.5-30.4h88.7l36.5,30.5c3.6,3,5.7,7.4,5.7,12.1v52.4c-7.1,4.6-13.6,10-19.4,16.2l-2.8-2.8c4.2-6.4,6.5-13.9,6.5-21.7,0-21.7-17.7-39.4-39.4-39.4s-2.7,0-4,.2c-8.9-10.1-21.8-16-35.3-16-26,0-47.2,21.2-47.2,47.2s.2,4.9.7,7.5c-3.3,2.3-6.1,5.1-8.4,8.2h-8c-8.7,0-15.7-7.1-15.7-15.7h0ZM27.7,326.8v-47.2c0-8.7,7.1-15.7,15.7-15.7h.9c-.5,2.6-.9,5.2-.9,7.9,0,21.7,17.7,39.4,39.4,39.4s4.8-.3,7.2-.7c.6-.1,1.2-.3,1.8-.4,1.9-.4,3.7-1,5.4-1.7.4-.2.9-.3,1.3-.5,2.1-.9,4.1-1.9,6-3.2l22.3,22.3h-17.3c-12.1,0-22.7,6.3-28.9,15.7h-37.1c-8.7,0-15.7-7.1-15.7-15.7h0ZM43.5,484.3c-8.7,0-15.7-7.1-15.7-15.7v-94.5c0-8.7,7.1-15.7,15.7-15.7h31.8c0,1-.3,2-.3,3,0,4.1.7,8.2,2.2,12.1,19,50.7,58.3,90.2,106.5,110.8H43.5h0ZM315.2,484.3h-55.5c-72.1,0-137.6-44.1-165.3-110.2h386c-27.7,66.1-93.2,110.2-165.3,110.2h0Z"/>
  <path class="cls-1" d="M135.9,385.5l-13.2,8.6c29.6,45.3,79.3,73.1,133.1,74.4l.4-15.7c-48.6-1.2-93.6-26.3-120.3-67.2Z"/>
  <path class="cls-1" d="M307.1,314l14.6-5.9c-10.9-26.9-36.7-44.3-65.7-44.3v15.7c22.6,0,42.6,13.5,51.1,34.4Z"/>
  <path class="cls-1" d="M263.9,137.9h78.7v15.7h-78.7v-15.7Z"/>
  <path class="cls-1" d="M279.6,169.4h47.2v15.7h-47.2v-15.7Z"/>
  <path class="cls-1" d="M279.6,200.9h47.2v15.7h-47.2v-15.7Z"/>
  <path class="cls-1" d="M271.7,452.8h15.7v15.7h-15.7v-15.7Z"/>
</svg>