<?xml version="1.0" encoding="iso-8859-1"?>
<!-- Generator: Adobe Illustrator 19.0.0, SVG Export Plug-In . SVG Version: 6.00 Build 0)  -->
<svg version="1.1" id="Capa_1" xmlns="http://www.w3.org/2000/svg" xmlns:xlink="http://www.w3.org/1999/xlink" x="0px" y="0px"
	 viewBox="0 0 512.001 512.001" style="enable-background:new 0 0 512.001 512.001;" xml:space="preserve">
<g>
	<g>
		<path d="M460.151,121.862c-5.531,0-10.001,4.481-10.001,10.001c0,5.531,4.471,10.001,10.001,10.001
			c5.521,0,10.001-4.471,10.001-10.001C470.153,126.342,465.672,121.862,460.151,121.862z"/>
	</g>
</g>
<g>
	<g>
		<path d="M340.134,61.853c-5.531,0-10.001,4.481-10.001,10.001c0,5.531,4.471,10.001,10.001,10.001
			c5.521,0,10.001-4.471,10.001-10.001C350.136,66.334,345.655,61.853,340.134,61.853z"/>
	</g>
</g>
<g>
	<g>
		<path d="M300.128,141.865c-5.531,0-10.001,4.481-10.001,10.001c0,5.531,4.471,10.001,10.001,10.001
			c5.521,0,10.001-4.471,10.001-10.001C310.13,146.345,305.649,141.865,300.128,141.865z"/>
	</g>
</g>
<g>
	<g>
		<path d="M280.126,81.856c-5.531,0-10.001,4.481-10.001,10.001c0,5.531,4.471,10.001,10.001,10.001
			c5.521,0,10.001-4.471,10.001-10.001C290.127,86.337,285.646,81.856,280.126,81.856z"/>
	</g>
</g>
<g>
	<g>
		<path d="M462.505,161.904c-5.491-0.583-10.42,3.39-11.008,8.881c-2.44,22.824-12.373,43.531-28.724,59.883
			c-15.446,15.455-34.99,25.239-56.519,28.292c-5.469,0.775-9.273,5.838-8.498,11.307c0.708,4.994,4.989,8.599,9.889,8.599
			c0.467,0,0.941-0.033,1.417-0.101c25.857-3.667,49.322-15.409,67.856-33.955c19.618-19.617,31.537-44.479,34.468-71.898
			C471.973,167.42,467.996,162.492,462.505,161.904z"/>
	</g>
</g>
<g>
	<g>
		<path d="M465.211,46.788c-62.394-62.384-163.917-62.385-226.315,0.002c-24.716,24.726-40.368,56.029-45.264,90.525
			c-6.535,45.959-9.255,91.302-39.027,121.073c-0.526,0.653-8.258,7.288-12.483,19.608c-3.924,11.359-3.612,23.597,0.712,34.589
			l-57.456,57.459c-19.496-19.495-51.216-19.495-70.71-0.002c-19.555,19.543-19.556,51.17-0.002,70.724
			c11.553,11.554,27.395,16.261,42.448,14.123c-2.138,15.05,2.568,30.896,14.12,42.448c19.547,19.546,51.174,19.559,70.722,0
			c19.496-19.496,19.496-51.217,0.015-70.698c-0.004-0.004-0.009-0.009-0.014-0.014l57.474-57.474
			c19.5,7.665,40.993,2.166,54.295-11.883c28.377-29.489,77.771-32.761,120.956-38.898c34.496-4.896,65.8-20.547,90.53-45.267
			C527.597,210.707,527.597,109.184,465.211,46.788z M119.851,420.444c-4.622,4.623-3.636,12.378,2.002,15.693
			c16.771,9.865,19.849,33.167,5.957,47.059c-11.725,11.732-30.695,11.735-42.431-0.002c-11.697-11.696-11.697-30.727,0-42.423
			c3.906-3.907,3.906-10.238,0-14.145c-3.906-3.905-10.238-3.905-14.145,0c-11.696,11.696-30.727,11.697-42.423,0
			c-11.732-11.733-11.74-30.703,0-42.435c13.868-13.87,37.175-10.838,47.056,5.959c3.315,5.637,11.068,6.626,15.693,2.002
			l62.478-62.479c4.879,4.887,10.711,8.698,17.09,11.202c2.503,6.383,6.317,12.216,11.201,17.091L119.851,420.444z M451.071,258.959
			c-21.638,21.63-49.024,35.326-79.198,39.609c-46.717,6.636-99.473,10.451-132.607,44.884c-0.12,0.126-0.24,0.245-0.366,0.371
			c-16.548,16.55-44.358,8.47-50.193-13.434c-0.922-3.464-3.627-6.168-7.09-7.09c-16.552-4.411-26.345-22.102-20.579-38.791
			c2.509-7.315,7.413-11.621,7.645-11.907c34.399-33.141,38.208-86.42,44.754-132.473c4.284-30.173,17.98-57.559,39.606-79.194
			C307.64,6.347,396.474,6.347,451.069,60.934C505.657,115.53,505.657,204.365,451.071,258.959z"/>
	</g>
</g>
<g>
</g>
<g>
</g>
<g>
</g>
<g>
</g>
<g>
</g>
<g>
</g>
<g>
</g>
<g>
</g>
<g>
</g>
<g>
</g>
<g>
</g>
<g>
</g>
<g>
</g>
<g>
</g>
<g>
</g>
</svg>
