<?xml version="1.0" encoding="iso-8859-1"?>
<!-- Generator: Adobe Illustrator 19.0.0, SVG Export Plug-In . SVG Version: 6.00 Build 0)  -->
<svg version="1.1" id="Capa_1" xmlns="http://www.w3.org/2000/svg" xmlns:xlink="http://www.w3.org/1999/xlink" x="0px" y="0px"
	 viewBox="0 0 512 512" style="enable-background:new 0 0 512 512;" xml:space="preserve">
<g>
	<g>
		<g>
			<path d="M119.467,213.333h-8.533c-4.713,0-8.533,3.82-8.533,8.533s3.82,8.533,8.533,8.533h8.533c4.713,0,8.533-3.82,8.533-8.533
				S124.18,213.333,119.467,213.333z"/>
			<path d="M170.667,230.4h-8.533c-4.713,0-8.533,3.82-8.533,8.533s3.82,8.533,8.533,8.533h8.533c4.713,0,8.533-3.82,8.533-8.533
				S175.38,230.4,170.667,230.4z"/>
			<path d="M221.867,213.333h-8.533c-4.713,0-8.533,3.82-8.533,8.533s3.821,8.533,8.533,8.533h8.533c4.713,0,8.533-3.82,8.533-8.533
				S226.58,213.333,221.867,213.333z"/>
			<path d="M503.467,494.933h-40.055l31.36-204.433c0.64-4.37-0.66-8.802-3.558-12.134c-2.925-3.374-7.174-5.309-11.639-5.299
				h-7.313c-1.007,0-1.971,0.154-2.961,0.213v-27.691c-0.005-8.374-6.782-15.166-15.155-15.189h-27.477v-17.067
				c0-4.713-3.82-8.533-8.533-8.533H384v-1.877c-0.015-7.104-4.947-13.251-11.878-14.805l10.94-94.251h9.472
				c4.713,0,8.533-3.821,8.533-8.533v-25.6c0-14.138-11.462-25.6-25.6-25.6V25.6c0-14.138-11.461-25.6-25.6-25.6H153.6
				C139.461,0,128,11.461,128,25.6v8.533c-14.138,0-25.6,11.461-25.6,25.6v25.6c0,4.713,3.82,8.533,8.533,8.533h9.472l8.934,76.8
				h-18.406c-51.816,0.061-93.806,42.051-93.867,93.867v8.533c0,9.426,7.641,17.067,17.067,17.067h8.533v26.812
				c-15.987,4.007-26.757,18.955-25.498,35.388c1.285,14.422,11.488,26.483,25.498,30.14V409.6h-8.533
				c-9.426,0-17.067,7.641-17.067,17.067v25.6c-0.002,16.069,6.492,31.457,18.005,42.667H8.533c-4.713,0-8.533,3.82-8.533,8.533
				S3.82,512,8.533,512h494.933c4.713,0,8.533-3.82,8.533-8.533S508.18,494.933,503.467,494.933z M426.667,247.467h25.6v30.583
				c-8.775,4.548-15.627,12.094-19.311,21.265c-1.745,4.297-3.849,8.439-6.289,12.382V247.467z M384,221.867h25.6v102.4v0.085v6.468
				c-7.602,5.935-16.302,10.308-25.6,12.868V221.867z M145.067,25.6c0-4.713,3.821-8.533,8.533-8.533h196.267
				c4.713,0,8.533,3.82,8.533,8.533v8.533H145.067V25.6z M119.467,76.8V59.733c0-4.713,3.82-8.533,8.533-8.533h247.467
				c4.713,0,8.533,3.82,8.533,8.533V76.8H119.467z M341.333,204.8h25.6v141.705c-2.825,0.222-5.615,0.521-8.533,0.521
				c-5.724-0.037-11.433-0.565-17.067-1.579V204.8z M339.456,187.733c-5.08,0.004-9.822,2.547-12.638,6.775
				c-16.077-14.469-36.705-22.863-58.317-23.731c-1.323-0.111-2.645-0.111-3.968-0.111H146.517l-8.934-76.8h228.301l-10.897,93.867
				H339.456z M34.133,273.067v-8.533c0.052-42.394,34.406-76.748,76.8-76.8h153.6c0.896,0,1.784,0,3.004,0.077
				c16.475,0.637,32.299,6.599,45.099,16.99h-15.846c-8.387,0.005-15.185,6.802-15.189,15.189v18.944h-27.477
				c-8.387,0.005-15.185,6.802-15.189,15.189v18.944H34.133z M324.267,221.867v118.869c-9.759-3.905-18.51-9.964-25.6-17.724
				V221.867H324.267z M281.6,256v38.886c-5.425-9.941-14.671-17.239-25.6-20.207V256H281.6z M225.894,315.733h-26.129
				c-4.51,0.003-8.836,1.792-12.032,4.975l-42.667,42.667L102.4,320.708c-3.196-3.183-7.522-4.972-12.032-4.975H59.733v-25.6H222.02
				c0,0.162,0,0.324,0,0.486L225.894,315.733z M228.531,332.8l5.197,34.133h-68.07l34.133-34.133H228.531z M236.373,384
				l8.943,58.385l-6.383,6.349L204.8,414.601c-3.191-3.192-7.518-4.991-12.032-5H59.733V384H236.373z M34.193,351.104
				c-0.403-4.946,1.41-9.816,4.949-13.295c3.187-3.215,7.53-5.02,12.058-5.009h39.108l34.133,34.133H52.651
				C43.345,367.183,35.365,360.339,34.193,351.104z M76.8,494.916c-23.546-0.028-42.629-19.104-42.667-42.65v-25.6H51.2h141.491
				l40.192,40.192c3.332,3.331,8.734,3.331,12.066,0l3.516-3.516l4.847,31.573H76.8z M270.583,494.933l-31.352-204.801l5.214,0.001
				c10.256-0.069,19.539,6.062,23.501,15.522c3.751,9.501,9.012,18.333,15.582,26.155c0.302,0.423,0.645,0.814,1.024,1.169
				c18.826,20.749,45.849,32.134,73.847,31.113c42.667,0,75.605-21.333,90.453-58.445c3.956-9.437,13.209-15.56,23.441-15.514
				l5.265-0.001l-31.411,204.801H270.583z"/>
			<path d="M354.133,384c-18.983,0-36.096,11.435-43.361,28.973c-7.264,17.538-3.249,37.725,10.174,51.148
				s33.61,17.438,51.148,10.174c17.538-7.264,28.973-24.378,28.973-43.361C401.038,405.024,380.042,384.028,354.133,384z
				 M354.133,460.8c-16.495,0-29.867-13.372-29.867-29.867s13.372-29.867,29.867-29.867S384,414.438,384,430.933
				S370.628,460.8,354.133,460.8z"/>
		</g>
	</g>
</g>
<g>
</g>
<g>
</g>
<g>
</g>
<g>
</g>
<g>
</g>
<g>
</g>
<g>
</g>
<g>
</g>
<g>
</g>
<g>
</g>
<g>
</g>
<g>
</g>
<g>
</g>
<g>
</g>
<g>
</g>
</svg>
