<svg id="line" viewBox="0 0 64 64" xmlns="http://www.w3.org/2000/svg"><path d="m57.03046 28.49623h-.09046a6.01183 6.01183 0 0 0 -5.91691-5.00612h-5.00609a2.00474 2.00474 0 0 1 -2.00245-2.00245 7.03606 7.03606 0 0 0 -7.00863-7.00852 1.00086 1.00086 0 0 0 -1.00117 1.00117 4.00917 4.00917 0 0 1 -4.0049 4.0049h-6.00737a8.02628 8.02628 0 0 0 -5.8998 2.59106 6.99954 6.99954 0 0 1 -5.13812 2.41506h-2.97923a5.01469 5.01469 0 0 0 -4.90542 4.0049h-.10071a3.00387 3.00387 0 0 0 .00013 6.00735h.23221l3.21133 12.045a4.00889 4.00889 0 0 0 3.87 2.97336h35.434a4.007 4.007 0 0 0 3.869-2.97287l3.21291-12.04551h.23173a3.00387 3.00387 0 0 0 -.00005-6.00733zm0 4.0049c-.70729.00153-1.75666-.15589-1.96817.74316l-3.41146 12.789a2.00271 2.00271 0 0 1 -1.934 1.48619h-35.434a2.00459 2.00459 0 0 1 -1.935-1.48668l-3.07454-11.52922h42.75105a1.00143 1.00143 0 0 0 -.00007-2.00245h-45.05507a1.00123 1.00123 0 0 1 0-2.00245h1.00123a1.001 1.001 0 0 0 1.00122-1.00122 3.007 3.007 0 0 1 3.00368-3.00368h2.97923a8.97434 8.97434 0 0 0 6.61258-3.06331 6.02034 6.02034 0 0 1 4.42534-1.94281h6.00735a6.01689 6.01689 0 0 0 5.90958-4.92595 5.03119 5.03119 0 0 1 4.10261 4.926 4.00927 4.00927 0 0 0 4.005 4.0049h5.00613a4.00067 4.00067 0 0 1 3.8627 3.00367h-42.91052a1.00134 1.00134 0 0 0 .00006 2.00245h45.05507a1.00135 1.00135 0 0 1 0 2.0024z"/></svg>