<?xml version="1.0" encoding="utf-8"?>
<!-- Generator: Adobe Illustrator 27.9.5, SVG Export Plug-In . SVG Version: 9.03 Build 54986)  -->
<svg version="1.1" id="Layer_1" xmlns="http://www.w3.org/2000/svg" xmlns:xlink="http://www.w3.org/1999/xlink" x="0px" y="0px"
	 viewBox="0 0 512 512" style="enable-background:new 0 0 512 512;" xml:space="preserve">
<path d="M293.8,71.4c32.1,5,61.8,16.3,86,32.6c23.4,15.8,40.6,35.7,49.8,57.4c1.6,3.7,5.2,6,9,6c1.3,0,2.6-0.2,3.8-0.8
	c5-2.1,7.3-7.8,5.2-12.8c-10.6-25.2-30.3-48-56.8-66c-26.6-18-59.1-30.3-94-35.8c-5.3-0.8-10.3,2.8-11.1,8.2
	C284.8,65.6,288.4,70.6,293.8,71.4z"/>
<path d="M104,144.7c1.5,3.7,5.5,6.2,9.5,6c4-0.2,7.6-3,8.8-6.8c1.2-3.8-0.1-8.3-3.3-10.7c-3.3-2.5-8.2-2.6-11.6-0.2
	C103.7,135.5,102.3,140.6,104,144.7z"/>
<path d="M151.1,108.3c1.6,3.7,5.6,6.3,9.6,6c3.9-0.3,7.5-3,8.7-6.8c1.2-3.8-0.1-8.2-3.3-10.7c-3.3-2.6-8.3-2.7-11.7-0.2
	C150.8,99.2,149.4,104.2,151.1,108.3z"/>
<path d="M201.6,144.7c1.5,3.7,5.5,6.2,9.5,6c4-0.2,7.6-3,8.8-6.8c1.2-3.8-0.2-8.3-3.4-10.7c-3.3-2.5-8.2-2.6-11.6-0.2
	C201.3,135.5,199.9,140.6,201.6,144.7z"/>
<path d="M506,318.4c0-21.5-13.8-39.8-33-46.6v-24.4c3.1-1.1,6.1-2.6,8.9-4.5c11.1-7.5,17.5-19.3,17.5-32.4c0-8.2-2.5-15.9-7.2-22.5
	c2.4-5.6,3.1-11.9,1.9-18.1c-8.4-44.7-37.1-85.7-80.9-115.3C369.6,25.2,313.7,8.9,256,8.9S142.4,25.2,98.8,54.7
	C55,84.3,26.3,125.2,18,170c-1.4,7.7,0,15.6,4.1,22.2c-3,5.6-4.6,11.8-4.6,18.3c0,13.1,6.4,24.9,17.5,32.4c1.3,0.9,2.7,1.7,4.1,2.4
	v26.5c-19.2,6.8-33,25.1-33,46.6v2c0,14.2,6.1,27.1,15.7,36.1c-2.8,5.4-4.3,11.5-4.3,17.7c0,9.8,3.6,18.8,10,25.9v35.2
	c0,37.6,30.6,68.3,68.3,68.3h320.6c37.7,0,68.3-30.6,68.3-68.3v-30.8c9.4-7.5,14.7-18.4,14.7-30.3c0-7.5-2.1-14.6-6.1-20.7
	c7.9-8.8,12.7-20.4,12.7-33.1V318.4z M486.5,318.4v2c0,10.1-5,19-12.7,24.4c-5,3.5-11,5.4-17.2,5.4H305.2l62.3-61.7h89.2
	C473.1,288.6,486.5,302,486.5,318.4z M154,288.6l1.5,1.6l10,10l-21,21l-32.5-32.5H154z M246.2,353.2l-59.9-59.9c0,0,0,0,0,0
	l-4.7-4.7h158l-65.3,64.5c0,0,0,0,0,0c0,0,0,0,0,0l-14.1,14.1L246.2,353.2z M37.2,173.6c7.4-39.6,33.2-76,72.6-102.7
	c40.4-27.3,92.3-42.4,146.2-42.4s105.8,15.1,146.2,42.4c39.4,26.7,65.2,63.1,72.6,102.7c1.4,7.3-4.5,14.3-11.9,14.3H49.1
	C41.6,187.9,35.8,180.9,37.2,173.6z M37.7,205.3c3.6,1.4,7.5,2.1,11.4,2.1h413.8c5.4,0,10.8-1.4,15.5-4c0.9,2.3,1.4,4.7,1.4,7.1
	c0,6.5-3.2,12.4-8.9,16.2c-5.8,3.9-13.1,4.8-19.7,2.7c-3.3-1-6.3-2.4-9.7-3.1c-3.6-0.8-7.3-1.1-11.1-1.1c-17.4,0-26.8,6.6-34.3,11.9
	c-6.6,4.7-11.8,8.3-23.1,8.3s-16.5-3.7-23.1-8.3c-7.5-5.3-16.9-11.9-34.3-11.9c-17.4,0-26.8,6.6-34.3,11.9
	c-6.6,4.7-11.8,8.3-23.1,8.3s-16.5-3.7-23.1-8.3c-7.5-5.3-16.9-11.9-34.3-11.9s-26.8,6.6-34.3,11.9c-6.6,4.7-11.8,8.3-23.1,8.3
	c-11.2,0-16.5-3.7-23.1-8.3c-7.5-5.3-16.9-11.9-34.3-11.9c-6.9,0-13.1,1.2-19,3.6c-7,2.8-15.1,2.1-21.4-2.1
	c-5.6-3.8-8.9-9.7-8.9-16.2C37,208.7,37.2,207,37.7,205.3z M60.5,250c5.1-0.2,9.9-1.5,14.7-3.4c4.8-1.8,9.9-2.2,15-1.7
	c8.6,0.8,13.3,4.1,19.1,8.2c7.5,5.3,16.9,11.9,34.3,11.9c17.4,0,26.8-6.6,34.3-11.9c6.6-4.7,11.8-8.3,23.1-8.3s16.5,3.7,23.1,8.3
	c7.5,5.3,16.9,11.9,34.3,11.9s26.8-6.6,34.3-11.9c6.6-4.7,11.8-8.3,23.1-8.3c11.2,0,16.5,3.7,23.1,8.3c7.5,5.3,16.9,11.9,34.3,11.9
	s26.8-6.6,34.3-11.9c6.6-4.7,11.8-8.3,23.1-8.3c4,0,7.9,0.7,11.6,2.1c3.6,1.4,7.4,2.5,11.3,2.9V269h-90c0,0,0,0,0,0h0H158.1
	c0,0,0,0,0,0c0,0,0,0,0,0H58.6v-19C59.2,250,59.9,250,60.5,250z M25.5,318.4c0-16.5,13.4-29.9,29.9-29.9h29.1l53.3,53.3
	c1.8,1.8,4.3,2.9,6.9,2.9s5.1-1,6.9-2.9l27.9-27.9l36.3,36.3H55.4c-5.2,0-10.3-1.4-14.8-3.9c-9-5.1-15.1-14.8-15.1-25.9V318.4z
	 M38.6,366.9c5.4,1.9,11.1,3,16.8,3h179.9l18.1,18.1c3.7,3.7,10,3.8,13.8,0l18.3-18.1h171.1c5.5,0,11-0.9,16.2-2.7
	c1.1-0.4,2.2-0.8,3.2-1.3c0.3-0.2,0.8-0.6,1.2-0.5c0.5,0,0.7,0.7,0.9,1.2c1.1,2.3,1.6,4.9,1.7,7.4c0.2,9.2-6.5,16.9-15.1,19.4
	c-5,1.4-10.3,1.1-15.1-0.8c-5.9-2.4-12.1-3.6-19-3.6c-17.4,0-26.8,6.6-34.3,11.9c-6.6,4.7-11.8,8.3-23.1,8.3
	c-11.2,0-16.5-3.7-23.1-8.3c-7.5-5.3-16.9-11.9-34.3-11.9s-26.8,6.6-34.3,11.9c-6.6,4.7-11.8,8.3-23.1,8.3s-16.5-3.7-23.1-8.3
	c-7.5-5.3-16.9-11.9-34.3-11.9s-26.8,6.6-34.3,11.9c-6.6,4.7-11.8,8.3-23.1,8.3c-11.2,0-16.5-3.7-23.1-8.3
	c-7.5-5.3-16.9-11.9-34.3-11.9c-6.9,0-13.1,1.2-19,3.6c-6.4,2.6-13.8,2.3-19.8-1.1c-5.3-3-9.3-8.1-10.2-14.2
	c-0.3-1.8-0.3-3.7-0.1-5.5C37.2,371.1,38.1,366.7,38.6,366.9z M465.1,435.4c0,26.9-21.9,48.7-48.7,48.7H95.7
	c-26.9,0-48.7-21.9-48.7-48.7v-23.2c8,2.3,16.7,2.1,24.9-0.6c0.2-0.1,0.3-0.1,0.5-0.2c0.8-0.3,1.5-0.5,2.2-0.8
	c3.5-1.4,7.3-2.1,11.6-2.1c11.2,0,16.5,3.7,23.1,8.3c7.5,5.3,16.9,11.9,34.3,11.9c17.4,0,26.8-6.6,34.3-11.9
	c6.6-4.7,11.8-8.3,23.1-8.3c11.2,0,16.5,3.7,23.1,8.3c7.5,5.3,16.9,11.9,34.3,11.9c17.4,0,26.8-6.6,34.3-11.9
	c6.6-4.7,11.8-8.3,23.1-8.3c11.2,0,16.5,3.7,23.1,8.3c7.5,5.3,16.9,11.9,34.3,11.9s26.8-6.6,34.3-11.9c6.6-4.7,11.8-8.3,23.1-8.3
	c2.9,0,5.8,0.3,8.6,1.1c2.7,0.7,5.2,1.9,7.9,2.7c5.8,1.6,12.1,2,18,1L465.1,435.4L465.1,435.4z"/>
<path d="M226.6,108.3c1.5,3.7,5.5,6.2,9.5,6c4-0.2,7.6-3,8.8-6.8c1.2-3.8-0.1-8.3-3.3-10.7c-3.3-2.5-8.2-2.6-11.6-0.2
	C226.4,99.1,224.9,104.2,226.6,108.3z"/>
<path d="M270.7,151.3c1.5,3.7,5.5,6.2,9.5,6c4-0.2,7.6-3,8.8-6.8c1.2-3.8-0.1-8.3-3.4-10.7c-3.3-2.5-8.2-2.6-11.6-0.2
	C270.4,142.2,269,147.2,270.7,151.3z"/>
<path d="M245.7,63.6c3.5,2.3,8.4,2.1,11.6-0.6c3.2-2.6,4.4-7.2,3-11c-1.4-3.7-5.2-6.4-9.2-6.3c-3.9,0-7.7,2.6-9.1,6.3
	C240.5,56.2,242.1,61.2,245.7,63.6z"/>
</svg>
