<svg width="24" height="26" viewBox="0 0 24 26" fill="none" xmlns="http://www.w3.org/2000/svg">
<path d="M8.22672 17.4115C8.22672 19.0833 9.21631 19.3854 11.9976 19.3854C14.7788 19.3854 15.7684 19.0885 15.7684 17.4115C15.7684 17.1146 16.0132 16.8698 16.3101 16.8698H23.6017L18.2267 6.27083H12.1278V11.6875L14.1798 9.63542C14.3934 9.42188 14.7319 9.42188 14.9455 9.63542C15.159 9.84896 15.159 10.1875 14.9455 10.401L11.9663 13.3854C11.9194 13.4323 11.8517 13.474 11.7892 13.5C11.7215 13.526 11.6538 13.5417 11.5809 13.5417C11.508 13.5417 11.4403 13.526 11.3726 13.5C11.3048 13.474 11.2423 13.4323 11.1955 13.3854L8.21631 10.401C8.00277 10.1875 8.00277 9.84896 8.21631 9.63542C8.42985 9.42188 8.76839 9.42188 8.98193 9.63542L11.034 11.6875V6.27083H5.76839L0.393392 16.8698H7.68506C7.98193 16.8698 8.22672 17.1146 8.22672 17.4115Z" fill="#828282"/>
<path d="M16.8257 17.9583C16.508 20.474 13.9194 20.474 11.9976 20.474C10.0757 20.474 7.49235 20.474 7.16943 17.9583H0.0444336V24.0521C0.0444336 24.849 0.695475 25.5 1.49235 25.5H22.508C23.3049 25.5 23.9559 24.849 23.9559 24.0521V17.9583H16.8257Z" fill="#828282"/>
<path d="M12.1382 1.04167C12.1382 0.744792 11.8934 0.5 11.5965 0.5C11.2996 0.5 11.0548 0.744792 11.0548 1.04167V6.27083H12.1434V1.04167H12.1382Z" fill="#828282"/>
</svg>
