<svg xmlns="http://www.w3.org/2000/svg" width="36" height="36" viewBox="0 0 36 36">
  <g id="appearance" transform="translate(-168 -32)">
    <rect id="Rectangle_164" data-name="Rectangle 164" width="36" height="36" transform="translate(168 32)" fill="none"/>
    <path id="palette_FILL0_wght300_GRAD0_opsz48" d="M117.965-824a17.317,17.317,0,0,1-6.96-1.419,18.284,18.284,0,0,1-5.721-3.864,18.255,18.255,0,0,1-3.864-5.73A17.426,17.426,0,0,1,100-842a17.438,17.438,0,0,1,1.443-7.093,17.943,17.943,0,0,1,3.944-5.715,18.288,18.288,0,0,1,5.866-3.811A18.753,18.753,0,0,1,118.446-860a19.217,19.217,0,0,1,6.7,1.173,17.764,17.764,0,0,1,5.588,3.272,15.925,15.925,0,0,1,3.835,4.981A14.014,14.014,0,0,1,136-844.262a10.408,10.408,0,0,1-2.684,7.493,9.726,9.726,0,0,1-7.391,2.815h-3.462a2.621,2.621,0,0,0-1.942.836,2.686,2.686,0,0,0-.816,1.933,3.358,3.358,0,0,0,.7,2.234,2.893,2.893,0,0,1,.7,1.92,2.982,2.982,0,0,1-.813,2.243,3.2,3.2,0,0,1-2.321.789ZM118-842Zm-10.873.94a1.938,1.938,0,0,0,1.412-.61,1.938,1.938,0,0,0,.61-1.412,1.938,1.938,0,0,0-.61-1.412,1.938,1.938,0,0,0-1.412-.61,1.939,1.939,0,0,0-1.412.61,1.938,1.938,0,0,0-.61,1.412,1.938,1.938,0,0,0,.61,1.412A1.938,1.938,0,0,0,107.128-841.059Zm5.9-7.925a1.939,1.939,0,0,0,1.412-.61,1.938,1.938,0,0,0,.61-1.412,1.939,1.939,0,0,0-.61-1.412,1.939,1.939,0,0,0-1.412-.61,1.938,1.938,0,0,0-1.412.61,1.939,1.939,0,0,0-.61,1.412,1.938,1.938,0,0,0,.61,1.412A1.938,1.938,0,0,0,113.024-848.984Zm9.955,0a1.938,1.938,0,0,0,1.412-.61,1.938,1.938,0,0,0,.61-1.412,1.939,1.939,0,0,0-.61-1.412,1.938,1.938,0,0,0-1.412-.61,1.939,1.939,0,0,0-1.412.61,1.939,1.939,0,0,0-.61,1.412,1.938,1.938,0,0,0,.61,1.412A1.939,1.939,0,0,0,122.978-848.984Zm6.06,7.925a1.938,1.938,0,0,0,1.412-.61,1.938,1.938,0,0,0,.61-1.412,1.938,1.938,0,0,0-.61-1.412,1.939,1.939,0,0,0-1.412-.61,1.939,1.939,0,0,0-1.412.61,1.938,1.938,0,0,0-.61,1.412,1.938,1.938,0,0,0,.61,1.412A1.938,1.938,0,0,0,129.038-841.059Zm-11.073,14.91a1.092,1.092,0,0,0,.752-.213.868.868,0,0,0,.231-.669,1.653,1.653,0,0,0-.7-1.25,3.2,3.2,0,0,1-.7-2.456,5.514,5.514,0,0,1,1.412-3.764,4.516,4.516,0,0,1,3.536-1.6h3.421a7.737,7.737,0,0,0,5.808-2.172,8.211,8.211,0,0,0,2.117-5.987,12,12,0,0,0-4.664-9.856,16.708,16.708,0,0,0-10.742-3.731,15.97,15.97,0,0,0-11.569,4.593A15.091,15.091,0,0,0,102.151-842a15.289,15.289,0,0,0,4.631,11.21A15.222,15.222,0,0,0,117.965-826.149Z" transform="translate(67.999 891.999)" fill="#5d4bdf"/>
  </g>
</svg>
