<svg xmlns="http://www.w3.org/2000/svg" width="36" height="36" viewBox="0 0 36 36">
  <g id="authentication" transform="translate(-167.585 -32)">
    <rect id="Rectangle_164" data-name="Rectangle 164" width="36" height="36" transform="translate(167.585 32)" fill="none"/>
    <path id="Path_144" data-name="Path 144" d="M-6342.5-13462.058a14.317,14.317,0,0,1-7.439-4.66,12.793,12.793,0,0,1-2.96-8.5,5.018,5.018,0,0,1,1.61-3.776,5.4,5.4,0,0,1,3.831-1.51,5.344,5.344,0,0,1,3.8,1.51,5.038,5.038,0,0,1,1.6,3.776,3.215,3.215,0,0,0,1.126,2.512,3.843,3.843,0,0,0,2.668,1.03,3.655,3.655,0,0,0,2.6-1.03,3.285,3.285,0,0,0,1.088-2.512,12.039,12.039,0,0,0-.951-4.81,11.906,11.906,0,0,0-2.847-3.964,13.116,13.116,0,0,0-4.184-2.67,13.6,13.6,0,0,0-4.94-.889,13.516,13.516,0,0,0-4.937.889,13.093,13.093,0,0,0-4.178,2.667,11.808,11.808,0,0,0-2.847,3.964,12.03,12.03,0,0,0-.948,4.813,18.964,18.964,0,0,0,.25,2.693,21.967,21.967,0,0,0,.984,3.775.726.726,0,0,1-.033.7,1.169,1.169,0,0,1-.353.338l-.023.014-.023.01a.9.9,0,0,1-.643.056.792.792,0,0,1-.522-.5l-.007-.017a26.12,26.12,0,0,1-.938-3.52,19.045,19.045,0,0,1-.331-3.542,13.38,13.38,0,0,1,4.33-10.02,14.366,14.366,0,0,1,10.218-4.112,14.56,14.56,0,0,1,10.306,4.069,13.351,13.351,0,0,1,4.323,10.063,5.019,5.019,0,0,1-1.587,3.737,5.32,5.32,0,0,1-3.808,1.524,5.477,5.477,0,0,1-3.859-1.521,4.963,4.963,0,0,1-1.633-3.741,3.328,3.328,0,0,0-1.087-2.547,3.656,3.656,0,0,0-2.623-1.036,3.769,3.769,0,0,0-2.665,1.033,3.3,3.3,0,0,0-1.107,2.55,10.74,10.74,0,0,0,2.6,7.355,14.033,14.033,0,0,0,6.566,4.163l.017,0a.951.951,0,0,1,.536.4.831.831,0,0,1,.074.609l0,.013a.97.97,0,0,1-.341.534.671.671,0,0,1-.406.132A.878.878,0,0,1-6342.5-13462.058Zm-9.562-.6a22.884,22.884,0,0,1-3.944-5.66,15.82,15.82,0,0,1-1.438-6.9,9.206,9.206,0,0,1,2.944-6.9,9.894,9.894,0,0,1,7.041-2.8,9.975,9.975,0,0,1,7.063,2.8,9.162,9.162,0,0,1,2.973,6.9.862.862,0,0,1-.227.622.816.816,0,0,1-.607.229.883.883,0,0,1-.565-.2.792.792,0,0,1-.295-.652,7.512,7.512,0,0,0-2.457-5.681,8.357,8.357,0,0,0-5.885-2.313,8.26,8.26,0,0,0-5.859,2.313,7.548,7.548,0,0,0-2.435,5.681,14.1,14.1,0,0,0,1.24,6.193,21.71,21.71,0,0,0,3.678,5.176.779.779,0,0,1,.247.729.955.955,0,0,1-.254.478,1,1,0,0,1-.477.258.688.688,0,0,1-.166.02A.746.746,0,0,1-6352.06-13462.654Zm6.612-5.77a8.919,8.919,0,0,1-2.9-6.793.918.918,0,0,1,.2-.6.777.777,0,0,1,.626-.274.8.8,0,0,1,.626.271.933.933,0,0,1,.211.607,7.14,7.14,0,0,0,2.409,5.577,8.189,8.189,0,0,0,5.647,2.2c.253,0,.539-.013.848-.043s.646-.072.99-.129h.006a.783.783,0,0,1,.588.133.831.831,0,0,1,.321.474.76.76,0,0,1-.082.652.821.821,0,0,1-.532.339,5.807,5.807,0,0,1-1.266.234c-.39.031-.675.043-.874.043A9.743,9.743,0,0,1-6345.448-13468.424Zm-17.628-15.852a.7.7,0,0,1-.338-.606,1.085,1.085,0,0,1,.13-.546l.012-.023.014-.02a19.023,19.023,0,0,1,6.895-5.973,19.3,19.3,0,0,1,8.871-2.121,20.019,20.019,0,0,1,8.917,2.065,18.82,18.82,0,0,1,6.988,5.938l.02.029a.9.9,0,0,1,.133.674.976.976,0,0,1-.3.477.829.829,0,0,1-.6.205.828.828,0,0,1-.659-.395,16.566,16.566,0,0,0-6.319-5.408,18.437,18.437,0,0,0-8.177-1.886,17.751,17.751,0,0,0-8.088,1.912,17.411,17.411,0,0,0-6.288,5.386l-.012.017a.964.964,0,0,1-.595.4.741.741,0,0,1-.131.012A.889.889,0,0,1-6363.076-13484.275Zm25.656-9.444-.026-.014a21.433,21.433,0,0,0-4.849-1.889,20.9,20.9,0,0,0-5.171-.649,20.487,20.487,0,0,0-5.109.646,21.762,21.762,0,0,0-4.814,1.893l-.032.017-.029.011a.78.78,0,0,1-.567-.018.781.781,0,0,1-.384-.348.934.934,0,0,1-.124-.494.71.71,0,0,1,.3-.6l.029-.017a21.85,21.85,0,0,1,5.22-2.107,21.906,21.906,0,0,1,5.521-.713,22.086,22.086,0,0,1,5.543.7,23.973,23.973,0,0,1,5.2,2.021.785.785,0,0,1,.48.561.854.854,0,0,1-.094.616l-.009.016a1.047,1.047,0,0,1-.386.349.721.721,0,0,1-.352.092A.848.848,0,0,1-6337.42-13493.72Z" transform="translate(6533 13530.002)" fill="#5d4bdf"/>
  </g>
</svg>
