<svg xmlns="http://www.w3.org/2000/svg" width="36" height="36" viewBox="0 0 36 36">
  <g id="captcha" transform="translate(-167.585 -32)">
    <rect id="Rectangle_164" data-name="Rectangle 164" width="36" height="36" transform="translate(167.585 32)" fill="none"/>
    <path id="smart_toy_FILL0_wght300_GRAD0_opsz48" d="M84.074-819.507a3.886,3.886,0,0,1-2.892-1.207A4.036,4.036,0,0,1,80-823.642a4.02,4.02,0,0,1,1.188-2.928,3.894,3.894,0,0,1,2.883-1.207v-5.447a2.549,2.549,0,0,1,.779-1.845,2.472,2.472,0,0,1,1.817-.792h7.262A4.011,4.011,0,0,1,95.12-838.8,3.91,3.91,0,0,1,98-840a3.9,3.9,0,0,1,2.883,1.207,4.02,4.02,0,0,1,1.188,2.928h7.262a2.472,2.472,0,0,1,1.817.792,2.549,2.549,0,0,1,.779,1.845v5.447a3.885,3.885,0,0,1,2.892,1.207A4.036,4.036,0,0,1,116-823.642a4.02,4.02,0,0,1-1.188,2.929,3.9,3.9,0,0,1-2.883,1.207v8.872a2.549,2.549,0,0,1-.779,1.846,2.472,2.472,0,0,1-1.817.792H86.67a2.472,2.472,0,0,1-1.817-.792,2.549,2.549,0,0,1-.779-1.846Zm7.983-3.868a1.5,1.5,0,0,0,1.125-.475A1.6,1.6,0,0,0,93.638-825a1.547,1.547,0,0,0-.468-1.143,1.551,1.551,0,0,0-1.135-.464,1.5,1.5,0,0,0-1.125.475,1.6,1.6,0,0,0-.457,1.153,1.548,1.548,0,0,0,.468,1.143A1.552,1.552,0,0,0,92.056-823.375Zm11.915,0a1.5,1.5,0,0,0,1.125-.475,1.6,1.6,0,0,0,.457-1.153,1.547,1.547,0,0,0-.468-1.143,1.552,1.552,0,0,0-1.135-.464,1.5,1.5,0,0,0-1.125.475,1.6,1.6,0,0,0-.457,1.153,1.547,1.547,0,0,0,.468,1.143A1.552,1.552,0,0,0,103.971-823.375ZM91-815.03h14.012V-817.1H91Zm-4.327,4.958h22.666a.543.543,0,0,0,.389-.158.537.537,0,0,0,.164-.4v-22.59a.545.545,0,0,0-.164-.4.528.528,0,0,0-.389-.167H86.67a.528.528,0,0,0-.389.167.545.545,0,0,0-.164.4v22.59a.537.537,0,0,0,.164.4A.543.543,0,0,0,86.67-810.072ZM98-821.943Z" transform="translate(87.583 873.997)" fill="#5d4bdf"/>
  </g>
</svg>
