<svg xmlns="http://www.w3.org/2000/svg" width="36" height="36" viewBox="0 0 36 36">
  <g id="currency" transform="translate(-168 -32)">
    <rect id="Rectangle_164" data-name="Rectangle 164" width="36" height="36" transform="translate(168 32)" fill="none"/>
    <path id="euro_symbol_FILL0_wght300_GRAD0_opsz48" d="M160-790.153a17.738,17.738,0,0,1-10.6-3.326,16.311,16.311,0,0,1-6.272-9.218h-7.735v-2.36h7.145a14.318,14.318,0,0,1-.2-1.538q-.072-.894-.072-1.558t.072-1.528q.072-.864.2-1.568h-7.145v-2.36h7.735a16.688,16.688,0,0,1,6.21-9.182A17.485,17.485,0,0,1,160-826.153a18.106,18.106,0,0,1,6.066.99,17.349,17.349,0,0,1,5.323,3.082l-1.919,1.912a14.36,14.36,0,0,0-4.52-2.506A15.443,15.443,0,0,0,160-823.5a14.733,14.733,0,0,0-9,2.728,13.53,13.53,0,0,0-5.03,7.164h13.544v2.36H145.265a7.961,7.961,0,0,0-.259,1.568q-.062.864-.062,1.528t.082,1.578a9.638,9.638,0,0,0,.239,1.518h14.243v2.36H145.943a12.68,12.68,0,0,0,5.391,7.406A15.867,15.867,0,0,0,160-792.8a15.872,15.872,0,0,0,5.016-.836,12.878,12.878,0,0,0,4.454-2.516l1.919,1.9a18.4,18.4,0,0,1-5.475,3.134A17.877,17.877,0,0,1,160-790.153Z" transform="translate(32.614 858.153)" fill="#5d4bdf"/>
  </g>
</svg>
