<svg xmlns="http://www.w3.org/2000/svg" width="36" height="36" viewBox="0 0 36 36">
  <g id="language" transform="translate(-167.585 -32)">
    <rect id="Rectangle_164" data-name="Rectangle 164" width="36" height="36" transform="translate(167.585 32)" fill="none"/>
    <path id="translate_FILL0_wght300_GRAD0_opsz48" d="M85.44-812.613l7.852-19.769h2.551l7.852,19.769h-2.16l-2.042-5.094H89.6l-2.026,5.094ZM71.8-817.7l-1.393-1.375,8.632-8.539a29.258,29.258,0,0,1-3.571-4.43,19.456,19.456,0,0,1-2.235-4.407h2.16a18.208,18.208,0,0,0,1.944,3.653,25.006,25.006,0,0,0,3.122,3.782,27.738,27.738,0,0,0,4.035-5.273,20.535,20.535,0,0,0,2.4-5.6h-19.2v-1.95H79.429v-2.777H81.4v2.777H93.14v1.95H88.975a23.636,23.636,0,0,1-2.66,6.425,28.341,28.341,0,0,1-4.482,5.876l4.49,4.536L85.53-821l-5.116-5.207Zm18.512-1.812h8.468l-4.225-10.757Z" transform="translate(99.892 878.613)" fill="#5d4bdf"/>
  </g>
</svg>
