<svg xmlns="http://www.w3.org/2000/svg" width="36" height="36" viewBox="0 0 36 36">
  <g id="our-locations" transform="translate(-168 -32)">
    <rect id="Rectangle_164" data-name="Rectangle 164" width="36" height="36" transform="translate(168 32)" fill="none"/>
    <path id="map_FILL0_wght300_GRAD0_opsz48" d="M164.826-782.46l-13.6-4.823-8.845,3.51a1.54,1.54,0,0,1-1.6-.063,1.582,1.582,0,0,1-.782-1.442v-27.814a1.985,1.985,0,0,1,.336-1.131,1.9,1.9,0,0,1,.91-.726l9.981-3.51,13.6,4.77,8.792-3.49a1.668,1.668,0,0,1,1.6.049,1.46,1.46,0,0,1,.782,1.375v28.248a1.432,1.432,0,0,1-.367.98,2.147,2.147,0,0,1-.908.608Zm-1.372-3.007v-26.325l-10.906-3.735V-789.2Zm2.4,0,7.742-2.561v-26.7l-7.742,2.933Zm-23.453-.781,7.742-2.954v-26.325l-7.742,2.6Zm23.453-25.544v0Zm-15.711-3.735v0Z" transform="translate(27.999 850.46)" fill="#5d4bdf"/>
  </g>
</svg>
