<svg xmlns="http://www.w3.org/2000/svg" width="36" height="36" viewBox="0 0 36 36">
  <g id="out-going-mail" transform="translate(-168 -32)">
    <rect id="Rectangle_164" data-name="Rectangle 164" width="36" height="36" transform="translate(168 32)" fill="none"/>
    <path id="outgoing_mail_FILL0_wght300_GRAD0_opsz48" d="M119.708-800l-1.467-1.453,3.709-3.736h-8.864v-2.085h8.864l-3.709-3.736,1.467-1.453L126-806.23Zm-27.029-5.188a2.586,2.586,0,0,1-1.884-.786A2.536,2.536,0,0,1,90-807.838v-19.51a2.536,2.536,0,0,1,.793-1.865A2.587,2.587,0,0,1,92.678-830h25.273a2.587,2.587,0,0,1,1.884.786,2.536,2.536,0,0,1,.793,1.865v10.589l-.527-.025q-.277-.014-.527-.014-.273,0-.526.014t-.527.042v-9.508l-13.393,9.518-13.022-9.49v18.382a.548.548,0,0,0,.161.406.559.559,0,0,0,.411.159h16.235q-.011.27-.011.47v.482q0,.282.014.573a3.555,3.555,0,0,0,.071.561Zm.617-22.726,11.833,8.631,12.148-8.631Zm-1.189,20.641v0Z" transform="translate(77.999 864.999)" fill="#5d4bdf"/>
  </g>
</svg>
