<svg xmlns="http://www.w3.org/2000/svg" width="36" height="36" viewBox="0 0 36 36">
  <g id="print-settings" transform="translate(-8719 -6517)">
    <rect id="Rectangle_95" data-name="Rectangle 95" width="36" height="36" transform="translate(8719 6517)" fill="none"/>
    <path id="print_FILL0_wght300_GRAD0_opsz48" d="M136.6-799.776v-5.854H120.587v5.854h-2.1v-7.914H138.7v7.914Zm-22.959,2.061h0Zm26.343,4.366a1.476,1.476,0,0,0,1.07-.444,1.413,1.413,0,0,0,.452-1.041,1.411,1.411,0,0,0-.452-1.041,1.467,1.467,0,0,0-1.061-.444,1.457,1.457,0,0,0-1.07.444,1.426,1.426,0,0,0-.443,1.041,1.426,1.426,0,0,0,.443,1.041,1.447,1.447,0,0,0,1.061.443ZM136.6-779.435v-8.822H120.587v8.822Zm2.1,2.061H118.487v-7.8h-6.946v-10.541a3.886,3.886,0,0,1,1.2-2.887,4.062,4.062,0,0,1,2.96-1.175h25.789a4.06,4.06,0,0,1,2.963,1.175,3.89,3.89,0,0,1,1.2,2.887v10.541H138.7Zm4.845-9.86v-8.49a1.9,1.9,0,0,0-.592-1.419,2.026,2.026,0,0,0-1.466-.573H115.7a2.006,2.006,0,0,0-1.466.583,1.916,1.916,0,0,0-.592,1.418v8.48h4.845v-3.084H138.7v3.084Z" transform="translate(8608.405 7327.531)" fill="#5d4bdf"/>
  </g>
</svg>
