<svg xmlns="http://www.w3.org/2000/svg" width="24" height="24" viewBox="0 0 24 24">
  <g id="users-active" transform="translate(-8719 -6517)">
    <rect id="Rectangle_95" data-name="Rectangle 95" width="24" height="24" transform="translate(8719 6517)" fill="none"/>
    <path id="folder_copy_FILL0_wght300_GRAD0_opsz48" d="M61.649-839a1.565,1.565,0,0,1-1.161-.5A1.651,1.651,0,0,1,60-840.693v-14.993h1.3v14.993a.357.357,0,0,0,.1.26.337.337,0,0,0,.253.1H81.408V-839Zm3.165-3.252a1.565,1.565,0,0,1-1.161-.5,1.652,1.652,0,0,1-.487-1.193v-14.361a1.651,1.651,0,0,1,.487-1.193,1.565,1.565,0,0,1,1.161-.5h6.527l2.286,2.348h8.725a1.565,1.565,0,0,1,1.161.5A1.651,1.651,0,0,1,84-855.957v12.013a1.652,1.652,0,0,1-.487,1.193,1.565,1.565,0,0,1-1.161.5Z" transform="translate(8658.999 7378.499)" fill="#5d4bdf"/>
  </g>
</svg>
