<svg id="Price_Tag" viewBox="0 0 64 64" xmlns="http://www.w3.org/2000/svg" data-name="Price Tag"><path d="m59.54 19.12-7.66-7.66c-.94-.94-2.2-1.46-3.54-1.46h-.37c-.26-4.62-2.31-8-4.97-8s-4.71 3.38-4.97 8h-6.03c-.07 0-.15 0-.22.02l-8.11 1.8c-1.19.22-2.22.9-2.91 1.9l-16.98 25.11c-1.4 2.07-.86 4.9 1.26 6.35l6.96 4.06c.03.59.17 1.17.43 1.73.54 1.16 1.51 2.04 2.75 2.48l9.82 3.27v.28c0 2.76 2.24 5 5 5h26c2.76 0 5-2.24 5-5v-34.34c0-1.34-.52-2.59-1.46-3.54zm-16.54-15.12c1.3 0 2.73 2.51 2.96 6h-5.93c.24-3.49 1.67-6 2.96-6zm-37.57 35.95 16.99-25.1c.38-.56.95-.94 1.65-1.07l8.03-1.79h.65l-6.81 2.7c-1.15.52-2.06 1.49-2.49 2.66l-11.08 29.78-6.27-3.65c-1.16-.79-1.46-2.38-.68-3.54zm10.4 11.61c-.71-.25-1.27-.76-1.59-1.43-.3-.65-.33-1.38-.08-2.05l11.17-30.03c.25-.67.77-1.23 1.39-1.51l3.84-1.52-4.1 4.1c-.94.94-1.46 2.2-1.46 3.54v31.96zm43.17 5.44c0 1.65-1.35 3-3 3h-26c-1.65 0-3-1.35-3-3v-34.34c0-.79.32-1.56.88-2.12l7.66-7.66c.56-.56 1.33-.88 2.12-.88h8.31c-.09 1.35-.36 2.62-.78 3.65-.63-.41-1.38-.65-2.18-.65-1.33 0-2.5.66-3.23 1.66-.03.03-.05.06-.08.09-.44.64-.69 1.41-.69 2.25 0 2.21 1.79 4 4 4s4-1.79 4-4c0-.61-.15-1.18-.39-1.69.76-1.42 1.24-3.29 1.36-5.31h.37c.79 0 1.56.32 2.12.88l7.66 7.66c.56.56.88 1.33.88 2.12v34.34zm-16-37c.69 0 1.36-.25 1.97-.7-.15.96-.97 1.7-1.97 1.7s-1.82-.74-1.97-1.7c.61.45 1.28.7 1.97.7zm-1.15-2.63c.33-.23.72-.37 1.15-.37s.83.14 1.15.37c-.31.33-.71.63-1.15.63s-.84-.29-1.15-.63z"/><path d="m46 35c1.65 0 3 1.35 3 3 0 .55.45 1 1 1s1-.45 1-1c0-2.76-2.24-5-5-5h-2v-2c0-.55-.45-1-1-1s-1 .45-1 1v2h-2c-2.76 0-5 2.24-5 5s2.24 5 5 5h2v6h-2c-1.65 0-3-1.35-3-3 0-.55-.45-1-1-1s-1 .45-1 1c0 2.76 2.24 5 5 5h2v2c0 .55.45 1 1 1s1-.45 1-1v-2h2c2.76 0 5-2.24 5-5s-2.24-5-5-5h-2v-6zm0 8c1.65 0 3 1.35 3 3s-1.35 3-3 3h-2v-6zm-4-2h-2c-1.65 0-3-1.35-3-3s1.35-3 3-3h2z"/></svg>