<?xml version="1.0" encoding="utf-8"?>
<!-- Generator: Adobe Illustrator 27.9.5, SVG Export Plug-In . SVG Version: 9.03 Build 54986)  -->
<svg version="1.1" id="Capa_1" xmlns="http://www.w3.org/2000/svg" xmlns:xlink="http://www.w3.org/1999/xlink" x="0px" y="0px"
	 viewBox="0 0 512 512" style="enable-background:new 0 0 512 512;" xml:space="preserve">
<g>
	<path d="M464.4,431.1H316.8c20.9-8.7,39.9-20.9,56.3-36h28.4C458,395,504,349,504,292.5c0-30.1-24.5-54.6-54.6-54.6h-14.5v-27
		c0-10.2-8.3-18.4-18.4-18.4H70.9c-10.2,0-18.4,8.3-18.4,18.4v32.2c0,4,3.3,7.3,7.3,7.3s7.3-3.3,7.3-7.3v-32.2
		c0-2.1,1.7-3.9,3.9-3.9h86.4v33.2c-2,0.9-3.8,2.1-5.4,3.7l-27.3,27.5c-3.3,3.4-5.2,7.8-5.2,12.5v60.7c0,9.8,8,17.8,17.8,17.8h54.5
		c9.8,0,17.8-8,17.8-17.8V284c0-4.7-1.8-9.2-5.2-12.5L177.2,244c-1.6-1.6-3.4-2.8-5.4-3.7V207h244.7c2.1,0,3.9,1.7,3.9,3.9v43.5v0.1
		c0,97.2-79,176.7-176.7,176.7c-89.2,0-164.5-66.6-175.4-155c-0.5-4-4.1-6.8-8.1-6.3c-4,0.5-6.8,4.1-6.3,8.1
		c8.6,70.1,54.7,127.5,116.7,153.2H23c-8.3,0-15,6.7-15,15c0,21,17.1,38.2,38.2,38.2h311.9c4,0,7.3-3.3,7.3-7.3c0-4-3.3-7.3-7.3-7.3
		H46.2c-13,0-23.6-10.6-23.6-23.6c0-0.3,0.2-0.5,0.5-0.5h441.4c0.3,0,0.5,0.2,0.5,0.5c0,13-10.6,23.6-23.6,23.6H392
		c-4,0-7.3,3.3-7.3,7.3c0,4,3.3,7.3,7.3,7.3h49.2c21,0,38.2-17.1,38.2-38.2C479.4,437.8,472.6,431.1,464.4,431.1L464.4,431.1z
		 M194.1,281.7c0.6,0.6,0.9,1.4,0.9,2.3v60.7c0,1.8-1.5,3.3-3.3,3.3h-54.5c-1.8,0-3.3-1.5-3.3-3.3V284c0-0.9,0.3-1.7,0.9-2.3
		l22.3-22.5v20.7c0,4,3.3,7.3,7.3,7.3c4,0,7.3-3.3,7.3-7.3v-20.7L194.1,281.7z M433.4,278.3h16c7.8,0,14.2,6.4,14.2,14.2
		c0,32.6-25.2,59.3-57.1,62C420.6,331.8,429.9,305.9,433.4,278.3L433.4,278.3z M434.9,252.5h14.5c22.1,0,40,18,40,40
		c0,48.5-39.5,88-88,88h-14c3.2-3.7,6.3-7.4,9.2-11.3h4.9c42.3,0,76.7-34.4,76.7-76.7c0-15.8-12.9-28.7-28.7-28.7h-14.8
		C434.8,260,434.9,256.2,434.9,252.5L434.9,252.5z"/>
	<path d="M234.1,173.2c4,0,7.2-3.2,7.2-7.2c0-17.8,19.1-19,19.1-43.7c0-24.7-19.1-25.9-19.1-43.7c0-17.8,19.1-19,19.1-43.7
		c0-4-3.2-7.2-7.2-7.2c-4,0-7.2,3.2-7.2,7.2c0,17.8-19.1,19-19.1,43.7c0,24.7,19.1,25.9,19.1,43.7c0,17.8-19.1,19-19.1,43.7
		C226.9,170,230.1,173.2,234.1,173.2L234.1,173.2z"/>
	<path d="M288.4,173.2c4,0,7.2-3.2,7.2-7.2c0-17.8,19.1-19,19.1-43.7c0-24.7-19.1-25.9-19.1-43.7c0-17.8,19.1-19,19.1-43.7
		c0-4-3.2-7.2-7.2-7.2s-7.2,3.2-7.2,7.2c0,17.8-19.1,19-19.1,43.7c0,24.7,19.1,25.9,19.1,43.7c0,17.8-19.1,19-19.1,43.7
		C281.2,170,284.4,173.2,288.4,173.2z"/>
	<path d="M179.9,173.2c4,0,7.2-3.2,7.2-7.2c0-17.8,19.1-19,19.1-43.7c0-24.7-19.1-25.9-19.1-43.7c0-17.8,19.1-19,19.1-43.7
		c0-4-3.2-7.2-7.2-7.2c-4,0-7.2,3.2-7.2,7.2c0,17.8-19.1,19-19.1,43.7c0,24.7,19.1,25.9,19.1,43.7c0,17.8-19.1,19-19.1,43.7
		C172.7,170,175.9,173.2,179.9,173.2z"/>
</g>
</svg>
