<?xml version="1.0" encoding="UTF-8"?>
<svg id="Capa_1" xmlns="http://www.w3.org/2000/svg" version="1.1" viewBox="0 0 512 512">
  <!-- Generator: Adobe Illustrator 29.8.1, SVG Export Plug-In . SVG Version: 2.1.1 Build 2)  -->
  <defs>
    <style>
      .st0 {
        fill: none;
        stroke: #000;
        stroke-linecap: round;
        stroke-linejoin: round;
        stroke-width: 15px;
      }
    </style>
  </defs>
  <path class="st0" d="M49.21,444.73c-15.38-16.44-29.01-33.92-40.87-52.22-1.26-1.95-1.08-4.51.44-6.27l98.36-114.77c50.16,38.36,95.01,83.21,133.38,133.38l-114.76,98.36c-1.77,1.51-4.32,1.7-6.28.44-15.43-10.01-30.28-21.26-44.41-33.77"/>
  <path class="st0" d="M243.01,222.76c-6.38,6.38-16.73,6.38-23.12,0-6.38-6.38-6.38-16.73,0-23.12,3.19-3.19,7.38-4.79,11.56-4.79"/>
  <path class="st0" d="M204.25,265.89c9.03,0,16.35,7.32,16.35,16.35s-7.32,16.35-16.35,16.35c-4.51,0-8.6-1.83-11.56-4.79"/>
  <line class="st0" x1="185.22" y1="234.31" x2="185.22" y2="234.31"/>
  <line class="st0" x1="164.47" y1="268.99" x2="164.47" y2="268.99"/>
  <line class="st0" x1="254.57" y1="153.8" x2="254.57" y2="153.8"/>
  <line class="st0" x1="347.03" y1="268.59" x2="347.03" y2="268.59"/>
  <line class="st0" x1="306.02" y1="268.99" x2="306.02" y2="268.99"/>
  <line class="st0" x1="289.24" y1="315.22" x2="289.24" y2="315.22"/>
  <line class="st0" x1="347.03" y1="49.39" x2="327.42" y2="84.7"/>
  <line class="st0" x1="462.61" y1="164.97" x2="433.67" y2="181.04"/>
  <line class="st0" x1="391.67" y1="120.32" x2="416.05" y2="95.95"/>
  <path class="st0" d="M146.3,305.04h0c10.23,58.33,11.32,117.86,3.24,176.49"/>
  <path class="st0" d="M123.37,425.73c1.21-29.34.01-58.72-3.58-87.91"/>
  <path class="st0" d="M437.53,224.4l50.74-19.52c15.06-5.79,20.78-23.83,12.24-37.51-.06-.09-.11-.18-.17-.28-6.47-10.69-4.58-26.9-11.86-37-7.3-10.13-23.28-13.47-31.35-22.96-8.09-9.5-8.82-25.81-17.64-34.62-8.82-8.82-25.12-9.55-34.62-17.64-9.49-8.07-12.83-24.05-22.96-31.35-10.1-7.28-26.31-5.39-37-11.86-.09-.06-.18-.11-.28-.17-13.69-8.54-31.72-2.82-37.52,12.24l-21.33,55.47"/>
  <path class="st0" d="M363.81,186.63l38.98-38.98c4.11-4.11,4.11-10.77,0-14.88l-24.15-24.15c-1.97-1.97-4.65-3.08-7.44-3.08h-14.4c-2.79,0-5.47-1.11-7.44-3.08l-14.22-14.22c-3.42-3.42-8.71-4.07-12.86-1.58l-20.21,12.13"/>
  <path class="st0" d="M356.62,210.02c12.06-21.76,8.88-49.7-9.59-68.17-12.03-12.03-28.08-17.57-43.83-16.65"/>
  <line class="st0" x1="215.48" y1="145.08" x2="107.79" y2="270.72"/>
  <path class="st0" d="M206.79,362.53c66.63-69.04,102.71-164.93,94.18-264.99-.11-1.24-.65-2.4-1.53-3.28l-17.74-17.74c-2.17-2.17-5.72-2.03-7.72.3l-35.7,41.64"/>
  <path class="st0" d="M390.4,276.39l44.78-38.38c2.33-1.99,2.46-5.55.3-7.72l-17.74-17.74c-.88-.88-2.04-1.43-3.28-1.53-43.21-3.68-85.64.97-125.47,12.79"/>
  <line class="st0" x1="241.28" y1="404.21" x2="363.51" y2="299.44"/>
  <path class="st0" d="M434.37,227.78l12.72-21.46c2.33-3.93,1.7-8.94-1.53-12.17l-14.54-14.54c-1.97-1.97-4.65-3.08-7.44-3.08h-14.4c-2.79,0-5.47-1.11-7.44-3.08l-11.93-11.93"/>
</svg>