<?xml version="1.0" encoding="utf-8"?>
<!-- Generator: Adobe Illustrator 27.9.5, SVG Export Plug-In . SVG Version: 9.03 Build 54986)  -->
<svg version="1.1" id="svg2208" xmlns:svg="http://www.w3.org/2000/svg"
	 xmlns="http://www.w3.org/2000/svg" xmlns:xlink="http://www.w3.org/1999/xlink" x="0px" y="0px" viewBox="0 0 682.7 682.7"
	 style="enable-background:new 0 0 682.7 682.7;" xml:space="preserve">
<style type="text/css">
	.st0{clip-path:url(#SVGID_00000012468842580212898470000008675909196188705195_);}
	.st1{fill:none;stroke:#000000;stroke-width:20;stroke-linecap:round;stroke-linejoin:round;stroke-miterlimit:13.3333;}
</style>
<g id="g2214" transform="matrix(1.3333333,0,0,-1.3333333,0,682.66667)">
	<g id="g2216">
		<g>
			<defs>
				<rect id="SVGID_1_" x="-74.7" y="-74.7" width="661.3" height="661.3"/>
			</defs>
			<clipPath id="SVGID_00000140711443987183619040000009024514758298377380_">
				<use xlink:href="#SVGID_1_"  style="overflow:visible;"/>
			</clipPath>
			<g id="g2218" style="clip-path:url(#SVGID_00000140711443987183619040000009024514758298377380_);">
				<g id="g2224" transform="translate(241,369.5)">
					<path id="path2226" class="st1" d="M0.5-3.5v71.4c0,12.4,7.9,23.4,19.6,27.5l92.5,31.9l9.5-27.5L29.5,67.9V-3.5"/>
				</g>
				<g id="g2228" transform="translate(130.5,294.5)">
					<path id="path2230" class="st1" d="M3.9-1.2l29.5-278h184.1l29.5,278"/>
				</g>
				<g id="g2232" transform="translate(162.2305,324.5)">
					<path id="path2234" class="st1" d="M2.9-2.1h226.9c8,0,14.5-6.5,14.5-14.5s-6.5-14.5-14.5-14.5H-42.3c-8,0-14.5,6.5-14.5,14.5
						c0,8,6.5,14.5,14.5,14.5h14.5l15,43.6h213.1l15-43.6"/>
				</g>
			</g>
		</g>
	</g>
</g>
</svg>
