<?xml version="1.0" encoding="UTF-8"?>
<svg id="Capa_1" data-name="Capa 1" xmlns="http://www.w3.org/2000/svg" version="1.1" viewBox="0 0 512 512">
  <defs>
    <style>
      .cls-1 {
        fill: #000;
        stroke-width: 0px;
      }
    </style>
  </defs>
  <path class="cls-1" d="M326.5,230.3c-4,0-7.3,3.3-7.3,7.3v8.7c0,4,3.3,7.3,7.3,7.3s7.3-3.3,7.3-7.3v-8.7c0-4-3.3-7.3-7.3-7.3Z"/>
  <path class="cls-1" d="M305,241.4c-2-3.5-6.5-4.7-9.9-2.7-3.5,2-4.7,6.4-2.7,9.9l4.4,7.5c1.3,2.3,3.8,3.6,6.3,3.6s2.5-.3,3.6-1c3.5-2,4.7-6.4,2.7-9.9l-4.4-7.5Z"/>
  <path class="cls-1" d="M357.9,238.8c-3.5-2-7.9-.8-9.9,2.7l-4.4,7.5c-2,3.5-.8,7.9,2.7,9.9,1.1.7,2.4,1,3.6,1,2.5,0,5-1.3,6.3-3.6l4.4-7.5c2-3.5.8-7.9-2.7-9.9h0Z"/>
  <path class="cls-1" d="M188.4,116.2c7.1,5.8,15.7,8.6,24.2,8.6s19.7-3.8,27.2-11.3c14-14,15.1-36.1,2.7-51.4-1.8-2.3-4.5-3.6-7.4-3.8-2.9-.2-5.7.9-7.8,3l-39.7,39.7c-2,2-3.1,4.9-3,7.8.2,2.9,1.5,5.6,3.8,7.4h0ZM233.9,75.2c4.7,9.1,3.2,20.4-4.4,28-7.5,7.5-18.9,9.1-28,4.4l32.3-32.3Z"/>
  <path class="cls-1" d="M445.5,111.7c1.9,1.9,4.5,3,7.2,3s.4,0,.5,0c2.9-.2,5.6-1.5,7.4-3.8,12.4-15.3,11.2-37.4-2.7-51.4-14-14-36.1-15.1-51.4-2.7-2.3,1.8-3.6,4.5-3.8,7.4-.2,2.9.9,5.7,3,7.8l39.7,39.7ZM447.7,69.7c7.5,7.5,9.1,18.9,4.4,28l-32.3-32.3c9.1-4.7,20.4-3.2,28,4.4Z"/>
  <path class="cls-1" d="M491.8,274.9h-14.9c8.6-18.6,11.4-39,7.2-57.9-.6-2.8-2.8-4.9-5.5-5.5-7.3-1.6-14.7-2.2-22.2-1.8-1.1-4.3-2.7-8.4-4.7-12.5-7.3-14.2-19.7-24.8-34.9-29.7-7.8-2.5-15.9-3.3-23.8-2.6,0-.2,0-.4-.1-.6,9.6-3.8,18.7-9.3,26.9-16.5,2.5-2.2,4-5.5,4.2-8.8.1-3.3-1.2-6.6-3.6-9l-113.1-113.1c-2.4-2.4-5.6-3.7-9-3.6-3.4.1-6.6,1.6-8.8,4.2-31.1,35.2-30.6,88.1.4,122.7-.7.8-1.4,1.7-2.1,2.5-12-7.2-26.2-10.1-40.2-8-13.7,2.1-25.8,8.8-34.8,18.4-9-2.9-19.5-.7-29.9,6.2-.9-37.5-18.2-66.5-40-66.5s-30.6,16.4-36.8,41.4c-.5-.5-.9-.9-1.4-1.4-27.6-27.6-61.7-36.8-77.6-20.9-15.9,15.9-6.7,50,20.9,77.6.5.5.9.9,1.4,1.4-25,6.1-41.4,20.2-41.4,36.8s29,39.1,66.5,40c-1.6,2.4-2.9,4.8-4,7.2h-37.6c-6.7,0-12.2,5.5-12.2,12.2v17.8c0,6.7,5.5,12.2,12.2,12.2h8.3c3.7,35,15.6,68.5,35,98.1,23.1,35.3,55.5,63.2,93.8,80.6,4.1,1.9,8.6,2.8,13,2.8h99.7c4,0,7.3-3.3,7.3-7.3s-3.3-7.3-7.3-7.3h-99.7c-2.4,0-4.8-.5-7-1.5-35.8-16.3-66.1-42.4-87.7-75.4-17.8-27.2-28.9-58-32.5-90.1h413.1c-3.6,32.1-14.7,62.9-32.5,90.1-21.6,33-51.9,59-87.7,75.4-2.2,1-4.6,1.5-7,1.5h-25.1c-4,0-7.3,3.3-7.3,7.3s3.3,7.3,7.3,7.3h25.1c4.5,0,9-1,13-2.8,38.2-17.5,70.7-45.4,93.8-80.6,19.4-29.6,31.3-63.1,35-98.1h8.3c6.7,0,12.2-5.5,12.2-12.2v-17.8c0-6.7-5.5-12.2-12.2-12.2ZM471.5,234.4c0,13.7-3.7,27.7-10.9,40.5h-29.7l40.5-40.5ZM461.2,224.1l-46.4,46.4c-2.2-8.6-5.7-16.8-10.1-24.2,16.4-14.4,36.8-22.3,56.5-22.2h0ZM408.2,138.5c-6.4,5.3-13.4,9.4-20.8,12.3-2.4-4.3-5.3-8.4-8.6-12,6.9-2.3,13.4-5.8,19.3-10.5l10.1,10.1ZM339.9,70.3l26.9,26.9c-2.6,1.1-5.4,1.8-8.3,1.8-5.4,0-10.5-2.1-14.4-5.9-6.1-6.1-7.5-15.2-4.2-22.7ZM298.6,28.9l10.1,10.1c-5.4,6.9-9.4,14.8-11.7,23.3-1,3.9,1.3,7.9,5.2,8.9,3.9,1,7.9-1.3,8.9-5.2,1.6-6,4.3-11.7,8-16.7l10.2,10.2c-8.8,13.5-7.2,31.8,4.6,43.6,6.6,6.6,15.3,10.2,24.7,10.2s13.4-2,19-5.6l10.2,10.2c-7.1,5.2-15.2,8.3-23.5,9.3-6.8-3.9-14.6-6.4-22.9-7.3-3.2-.3-6.4-.4-9.6-.3-2.8-1.8-5.5-4-7.9-6.4-5-5-8.9-11-11.3-17.7-1.4-3.8-5.6-5.7-9.3-4.3-3.8,1.4-5.7,5.6-4.3,9.3,3.2,8.7,8.1,16.4,14.7,22.9s0,0,0,0c-4.6,1.8-9,4.1-13,6.9-25.6-28.6-26.5-71.9-1.9-101.6h0ZM249.6,149.1c12.5-1.9,25.4,1.5,35.3,9.4,1.6,1.3,3.8,1.9,5.9,1.5,2.1-.4,3.9-1.6,4.9-3.5,9-15.4,26.3-24,44-22.1,19.2,2.1,34.3,15.9,39,33.6-6.9,2.4-13.5,6.1-19.2,10.9-10.3-9.5-23.6-15.2-37.7-15.9-23.5-1.2-45.2,11.4-55.9,31.8-5.3-1.8-10.8-2.9-16.5-3.2-5.6-.3-11.1.3-16.4,1.5.4-13-2.4-24.1-8.3-31.5,6.6-6.5,15.2-11,24.9-12.5h0ZM231,208.8c4.8-1.7,10-2.7,15.3-2.7s1.5,0,2.3,0c6.2.3,12.2,1.8,17.7,4.6,1.8.9,4,1,5.9.2,1.9-.8,3.4-2.3,4.1-4.2,7-18.5,24.9-30.2,44.7-29.2,12.7.6,24.6,6.6,32.7,16.4,1.3,1.6,3.3,2.6,5.4,2.6,2.1,0,4.1-.8,5.5-2.4,11.9-13.2,30.6-18.2,47.5-12.8,11.5,3.7,20.9,11.7,26.4,22.5,1.3,2.5,2.3,5.1,3.1,7.8-16.2,3.5-32.1,11.3-45.6,22.8-16.7-19.9-41.8-32.5-69.7-32.5-44.1,0-80.9,31.4-89.4,73h-18.2l-5.4-20.3c-.5-1.9-.2-3.9.9-5.6,3-4.6,5.7-9.6,8.1-14.8,4-8.6,6.9-17.2,8.6-25.5h0ZM380.9,261.7c-2-3.5-6.5-4.7-9.9-2.7l-7.5,4.4c-3.5,2-4.7,6.4-2.7,9.9.3.6.7,1.1,1.2,1.5h-70.9c.5-.4.9-1,1.2-1.5,2-3.5.8-7.9-2.7-9.9l-7.5-4.4c-3.5-2-7.9-.8-9.9,2.7s-.8,7.9,2.7,9.9l5.6,3.2h-28.3c8.2-33.5,38.5-58.5,74.5-58.5s66.3,24.9,74.5,58.5h-28.3l5.6-3.2c3.5-2,4.7-6.4,2.7-9.9h0ZM94.3,143.1c3.8,3.8,7.3,7.8,10.4,12,1.8,2.4,4.9,3.5,7.8,2.7,2.9-.8,5-3.3,5.3-6.3,2.8-27.6,14.9-44.1,25-44.1s25.5,22.6,25.5,55.1-.2,8.3-.7,12.4c-.4,3.1,1.3,6.1,4.2,7.4,2.8,1.3,6.2.7,8.4-1.6,10.7-11.4,22.2-16.6,29.3-13.3,10.9,5.1,13.6,31.3-.1,60.7-2.1,4.6-4.5,8.9-7.2,13-3.3,5.1-4.3,11.4-2.7,17.2l4.4,16.5h-3.5l-26.7-26.7,7.3-46.2c.6-4-2.1-7.7-6-8.3-4-.6-7.7,2.1-8.3,6l-5.7,35.8-21.3-21.3,7.3-46.2c.6-4-2.1-7.7-6-8.3-4-.6-7.7,2.1-8.3,6l-5.7,35.8L44.3,118.9c11.6-2,31.6,5.8,50,24.2h0ZM489.5,302.6H35.1v-13.2h94.9c4,0,7.3-3.3,7.3-7.3s-3.3-7.3-7.3-7.3h-42.9c2.3-3.3,5.1-6.6,8.6-9.9,2.3-2.1,2.9-5.5,1.6-8.4-1.2-2.6-3.8-4.2-6.6-4.2s-.5,0-.8,0c-4.1.5-8.3.7-12.4.7-32.5,0-55.1-13.5-55.1-25.5s16.5-22.2,44.1-25c3-.3,5.5-2.4,6.3-5.3s-.3-6-2.7-7.8c-4.2-3.1-8.2-6.6-12-10.4-11-11-19-23.4-22.6-35-1.8-5.8-2.3-10.9-1.6-15l82.6,82.6-35.8,5.7c-4,.6-6.7,4.3-6,8.3.6,3.6,3.7,6.1,7.2,6.1s.8,0,1.1,0l46.2-7.3,21.3,21.3-35.8,5.7c-4,.6-6.7,4.3-6,8.3.6,3.6,3.7,6.1,7.2,6.1s.8,0,1.1,0l46.2-7.3,16.4,16.4h-15.8c-4,0-7.3,3.3-7.3,7.3s3.3,7.3,7.3,7.3h325.5v13.2Z"/>
</svg>