<?xml version="1.0" encoding="utf-8"?>
<!-- Generator: Adobe Illustrator 27.9.5, SVG Export Plug-In . SVG Version: 9.03 Build 54986)  -->
<svg version="1.1" id="Layer_1" xmlns="http://www.w3.org/2000/svg" xmlns:xlink="http://www.w3.org/1999/xlink" x="0px" y="0px"
	 viewBox="0 0 50 50" style="enable-background:new 0 0 50 50;" xml:space="preserve">
<g id="hvo7Ps_00000134962354327143679650000009764285088722681754_">
	<g>
		<path d="M21.8,40.3c-5.4,0-7.7-1.8-8.4-5.8c-0.2-1.3-0.9-1.6-2.1-1.4c-1.7,0.3-3.5,0.6-5.2,0.4c-2.4-0.2-4.1-1.8-4.8-4.1
			c-0.7-2.3-0.2-4.5,1.6-6.1c5-4.6,10.5-8.5,17.2-10.3c0.8-0.2,1.5-0.8,2.3-1.1c1.8-0.8,3.5-1.8,5.4-2.4c4.4-1.2,7.6,1.8,7,6.3
			c-0.1,0.6,0.1,1.7,0.4,1.8c0.6,0.2,1.4,0,2-0.3c1.3-0.6,2.5-1.6,3.8-2.1c2.3-0.9,4.6-0.7,6.5,1.1c1.9,1.8,2.2,4.1,1.4,6.4
			c-0.3,1-0.9,1.9-1.5,2.8c-4.8,6.5-11.3,10.6-18.9,12.9C25.8,39.2,23.2,39.9,21.8,40.3z M26.5,24.1c1.2,0.6,2.3,1.1,3.3,1.7
			c0,0.2-0.1,0.4-0.1,0.5c-3.2-1.5-5.9-1.1-8.4,1.5c0.9,0.4,1.6,0.8,2.2,1.1c-0.9,0.4-1.6,0.3-2.4,0.4c-1.7,0.1-3.2,0.5-4.3,1.9
			c-0.9,1.3-0.8,3.2,0.3,4.3c0.9,1,2.2,0.9,3.7-0.2c0.4-0.3,0.7-0.5,1.1-0.8c0.5,2.1,1.1,2.3,2.8,0.9c1.1-0.9,2-2,3-3
			c0.3-0.3,0.6-0.5,1.1-1c0,0.7-0.1,0.9-0.1,1.2c0,0.5,0,1,0,1.5c0.6-0.1,1.4,0.1,1.7-0.2c1.2-1.1,2.2-2.4,3.3-3.6
			c0.3-0.4,0.5-0.8,0.8-1.2c0.1,0,0.2,0.1,0.3,0.1c0.1,0.6,0.1,1.1,0.2,1.9c2.5-1,3.4-3.3,5.1-5c0.2,0.6,0.3,1,0.4,1.4
			c2.5-0.9,3.4-2,3.4-4c0.7-0.3,1.4-0.5,2.1-0.8c-0.5-0.6-0.8-0.9-1.2-1.3c1.1-0.8,1.2-1.8,0.5-2.8c-0.7-1-1.9-1.2-2.8-0.8
			c-1.4,0.6-2.6,1.6-3.9,2.3c0.5,0.9,0.8,1.5,1.1,2c-1.3-0.3-2.3-1-3.4-1.2c-1.1-0.1-2.3,0.3-3.5,0.5c2.3,0.9,2.9,1.3,3.1,2.8
			C32.6,22,29.5,22.1,26.5,24.1z M7,25c-0.1,0.5-0.1,0.7-0.2,0.9C6.4,27,6.3,28.4,7.4,29c0.9,0.5,2.2,0.3,3.3,0.2
			c0.6,0,1.1-0.6,1.6-0.8c0.5-0.2,1-0.3,1.6-0.5c1.4-0.4,3-0.6,4.2-1.4c3.1-2,6-4.2,9.2-6.6c0-0.1,0-0.6,0-1.4
			c1.5,0.8,2,0.1,2.3-1.1c0.1-0.5,0.5-1,1-1.3c1-0.7,1.7-1.5,1-2.8c-0.6-1.3-1.8-1.7-3-1.4c-1.4,0.4-2.7,1.1-4.2,1.8
			c1.4,0.9,2.6,1.6,3.7,2.3c-0.1,0.2-0.2,0.3-0.2,0.5c-2.6-0.4-5.2-2.2-8.2-0.6c1.5,0.5,3.1,0.3,4.1,2c-2.1-0.2-3.8-0.5-5.5-0.6
			c-2.2-0.1-4,0.6-4.7,1.3c1.1,0.3,2.3,0.5,3.5,0.8c0,0.2,0,0.5-0.1,0.7c-2.6-0.6-5.2-0.7-7.6,1c0.9,0.3,1.7,0.5,2.5,0.8
			c0,0.2,0,0.3-0.1,0.5c-0.6,0.1-1.2,0.1-1.8,0.2c-2.1,0.2-4.1,0.9-5.4,2.7c-1.1,1.4-0.8,2.7,0.5,3.5C5.1,27.6,5.2,26,7,25z"/>
	</g>
</g>
</svg>
