<?xml version="1.0" encoding="utf-8"?>
<!-- Generator: Adobe Illustrator 27.9.5, SVG Export Plug-In . SVG Version: 9.03 Build 54986)  -->
<svg version="1.1" id="Layer_1" xmlns="http://www.w3.org/2000/svg" xmlns:xlink="http://www.w3.org/1999/xlink" x="0px" y="0px"
	 viewBox="0 0 512 512" style="enable-background:new 0 0 512 512;" xml:space="preserve">
<g id="Dessert">
	<path d="M474.2,447.1h-28.5l-21.2-265.5c-1.5-18.6-18.9-33.1-39.8-33.1h-71.1c22-21.6,22.3-56.9,0.7-78.8
		c-7-7.1-15.7-12.2-25.3-14.8c10-11.8,29.7-29.8,56.6-29.8c4.4,0,8-3.6,8-8s-3.6-8-8-8c-41.3,0-67.7,32.8-75.4,44
		c-30.7,2.5-53.5,29.5-51,60.1c1.1,13.3,7,25.8,16.5,35.2h-70.2c-20.8,0-38.2,14.5-39.8,33.1l-2.2,26.3c-0.4,4.4,2.9,8.2,7.3,8.6
		c4.4,0.4,8.2-2.9,8.6-7.3l2.2-26.3c0.8-10.4,11.3-18.4,23.9-18.4h219.3c12.6,0,23.1,8,23.9,18.4l6.9,86h-0.8
		c-18.1,0-32.7,14.6-32.8,32.7v5.9c0,6.8-5.5,12.2-12.2,12.2c-6.8,0-12.2-5.5-12.2-12.2c0,0,0,0,0,0v-5.9
		c0-18.1-14.7-32.7-32.8-32.7h-1.5c-18.1,0-32.7,14.6-32.8,32.7v61.7c0,4.4-2.3,8.5-6.2,10.6c-3.9,2-5.4,6.9-3.3,10.8
		c1.4,2.6,4.1,4.3,7,4.3c1.3,0,2.6-0.3,3.7-0.9c2.4-1.3,4.5-2.9,6.4-4.8c5.3-5.3,8.3-12.4,8.3-19.9v-61.7c0-9.3,7.6-16.8,16.8-16.8
		h1.5c9.3,0,16.8,7.5,16.8,16.8v5.9c0,15.5,12.6,28.2,28.1,28.2c15.5,0,28.2-12.6,28.2-28.1c0,0,0,0,0,0v-5.9
		c0-9.3,7.6-16.8,16.8-16.8h2l13,162.4H271.9c-4.4,0-8,3.6-8,8c0,4.4,3.6,8,8,8h193.2c-3.3,13.9-15.7,23.7-29.9,23.9H250
		c1.1-2.2,1.8-4.6,2.2-7.1l18.7-115.1l0,0c7-12.1,10.6-25.8,10.6-39.8c0-40.7-29.5-73.7-68.2-76.8c-23.9-31.9-69-38.4-100.9-14.5
		c-5.5,4.1-10.4,9-14.5,14.5c-38.4,3.1-68,36.1-68,76.8c0,14,3.6,27.7,10.6,39.8l0,0l18.7,115.1c2.9,13.9,15.5,23.7,29.7,23h346.4
		c26.1-0.3,47.1-21.7,46.8-47.8C482,450.7,478.5,447.2,474.2,447.1z M234.8,108.7c0-22,17.8-39.8,39.8-39.8s39.8,17.8,39.8,39.8
		s-17.8,39.8-39.8,39.8S234.8,130.7,234.8,108.7z M102.4,263.7c0.7,0,1.4-0.2,2-0.4h0.6c7.1,0.1,14,1.7,20.4,4.6
		c1,0.5,2.2,0.8,3.3,0.8c4.4,0,8-3.5,8-7.9c0-3.2-1.8-6-4.7-7.3c-4.3-2-8.7-3.5-13.3-4.5c21-18.7,52.8-18.7,73.8,0
		c-4.6,1-9.1,2.5-13.4,4.5c-4,1.8-5.8,6.5-3.9,10.5c1.3,2.9,4.2,4.7,7.3,4.7c1.2,0,2.3-0.3,3.3-0.8c6.4-2.9,13.3-4.5,20.4-4.7h0.7
		c0.7,0.2,1.3,0.3,2,0.4c31.9,0.9,56.7,27.9,56.7,61.2c0,10.2-2.5,20.3-7.2,29.4H52.9c-4.7-9.1-7.2-19.2-7.2-29.4
		C45.8,291.4,70.7,264.6,102.4,263.7z M208.6,486.9l13.9-102.8c0.6-4.4-2.5-8.4-6.9-9c-4.4-0.6-8.4,2.5-9,6.9l-14,104.9h-28.9V382.3
		c0-4.4-3.6-8-8-8c-4.4,0-8,3.6-8,8v104.6h-28.9l-14.1-104.9c-0.6-4.4-4.6-7.5-9-6.9s-7.5,4.6-6.9,9l14,102.8h-14
		c-6.3,0.5-12.1-3.5-13.9-9.6L57.5,370.2h196.4l-17.4,107.1c-1.7,6.1-7.5,10.1-13.8,9.6H208.6z"/>
</g>
</svg>
