<svg id="Layer_1" enable-background="new 0 0 470 470" height="512" viewBox="0 0 470 470" width="512" xmlns="http://www.w3.org/2000/svg"><g><g><g><g><g><path d="m6 71.165v185c0 11.046 8.954 20 20 20h179l-17-43.847 37-58.542-37-75.441 17-47.17h-179c-11.046 0-20 8.955-20 20z" fill="#bec3c7"/><path d="m36 99.165c0-16.569 13.431-30 30-30h132.513l6.487-18h-179c-11.046 0-20 8.954-20 20v185c0 11.046 8.954 20 20 20h10z" fill="#d7dadd"/><path d="m202.281 127.453h-18l22.719 46.323-31.318 49.552c-3.574 5.655-4.256 12.669-1.837 18.907l13.155 33.93h18l-17-43.847 37-58.542z" fill="#a9b1b8"/></g><g><path d="m141.391 222.138h-69.48v-36.377c0-5.523 4.477-10 10-10h49.08c11.267 0 20.4 9.133 20.4 20.4v15.977c0 5.523-4.477 10-10 10z" fill="#a9b1b8"/><g><path d="m73 229.165h55.839c5.523 0 10-4.477 10-10v-21.712c0-5.523-4.477-10-10-10h-55.839c-5.523 0-10 4.477-10 10v21.712c0 5.523 4.477 10 10 10z" fill="#57ceae"/><path d="m73 187.454h55.839c5.523 0 10 4.477 10 10v7h-47.839c-5.523 0-10 4.477-10 10v14.712h-8c-5.523 0-10-4.477-10-10v-21.712c0-5.523 4.477-10 10-10z" fill="#6df7ae"/><path d="m128.839 235.166h-55.839c-8.822 0-16-7.178-16-16v-21.712c0-8.822 7.178-16 16-16h55.839c8.822 0 16 7.178 16 16v21.712c0 8.822-7.178 16-16 16zm-55.839-41.712c-2.206 0-4 1.794-4 4v21.712c0 2.206 1.794 4 4 4h55.839c2.206 0 4-1.794 4-4v-21.712c0-2.206-1.794-4-4-4z" fill="#310e31"/></g></g><g><path d="m188 98.335-182.017.001.017 42.117h202.657z" fill="#7373ff"/><g><path d="m35.992 131.327-.004 9.126h-30.005l.017-42.118h182l6.376 13h-138.384c-11.043 0-19.996 8.95-20 19.992z" fill="#88f"/><path d="m165.178 127.148h-81.374c-3.674 0-6.653 2.979-6.653 6.653 0 3.674 2.979 6.653 6.653 6.653h81.374c3.674 0 6.653-2.979 6.653-6.653 0-3.675-2.978-6.653-6.653-6.653z" fill="#c5c5ff"/></g></g></g><g><g><path d="m464 71.165v185c0 11.046-8.954 20-20 20h-179l-17-43.847 37-58.542-37-75.441 17-47.17h179c11.045 0 20 8.955 20 20z" fill="#bec3c7"/><path d="m444 51.165h-179l-6.487 18h145.487c16.569 0 30 13.431 30 30v177h10c11.046 0 20-8.954 20-20v-185c0-11.045-8.955-20-20-20z" fill="#d7dadd"/><path d="m300.538 168.756-20.747-42.302h-18l23.209 47.322-37 58.542 17 43.847h18l-17-43.847 34.013-53.816c1.856-2.937 2.055-6.627.525-9.746z" fill="#a9b1b8"/></g><g fill="#310e31"><path d="m413.864 235.166h-95.152c-3.313 0-6-2.687-6-6s2.687-6 6-6h95.152c3.313 0 6 2.687 6 6s-2.686 6-6 6z"/><path d="m413.864 193.454h-49.152c-3.313 0-6-2.687-6-6s2.687-6 6-6h49.152c3.313 0 6 2.687 6 6s-2.686 6-6 6z"/></g><path d="m268.657 140.453h195.343l-.026-42.12-215.974.002z" fill="#7373ff"/><g><path d="m463.974 140.453h-29.991l.005-8.109c.007-11.05-8.95-20.012-20-20.012h-158.75l-7.239-14h216z" fill="#88f"/><path d="m385.178 127.145h-81.374c-3.674 0-6.653 2.979-6.653 6.653 0 3.674 2.979 6.653 6.653 6.653h81.374c3.674 0 6.653-2.979 6.653-6.653 0-3.674-2.978-6.653-6.653-6.653z" fill="#c5c5ff"/></g></g></g><g><circle cx="235" cy="319.487" fill="#ef5264" r="99.349"/><g><path d="m334.349 319.487c0-.044 0-.088 0-.132-.012-9.39-14.108-10.1-14.96-.749-.027.291-.04.585-.04.88 0 47.613-36.735 84.349-84.349 84.349-.296 0-.59.014-.881.04-9.351.853-8.641 14.948.749 14.96h.132c54.869.002 99.349-44.478 99.349-99.348z" fill="#ef1e64"/><path d="m150.65 319.487c0-47.613 36.736-84.349 84.35-84.349.296 0 .589-.014.88-.04 9.351-.852 8.641-14.948-.749-14.96-.044 0-.088 0-.132 0-54.869 0-99.349 44.48-99.349 99.349v.132c.012 9.39 14.107 10.1 14.96.749.027-.291.04-.585.04-.881z" fill="#f27583"/></g><g fill="#310e31"><path d="m444 45.166h-179c-2.529 0-4.787 1.586-5.645 3.966l-17 47.169c-.551 1.529-.458 3.217.258 4.676l35.522 72.429-26.57 42.039c-5.399-.856-10.93-1.306-16.566-1.306-10.946 0-21.507 1.68-31.44 4.792l26.513-41.949c1.113-1.762 1.232-3.976.314-5.848l-35.88-73.157 16.139-44.777c1.473-3.752-1.616-8.147-5.645-8.034h-179c-14.337 0-26 11.664-26 26v185c0 14.336 11.663 26 26 26h110.486c-4.412 11.607-6.836 24.186-6.836 37.322 0 58.09 47.26 105.349 105.35 105.349s105.349-47.259 105.349-105.349c0-13.136-2.424-25.715-6.836-37.322h110.487c14.337 0 26-11.664 26-26v-185c0-14.337-11.663-26-26-26zm-432 26c0-7.72 6.28-14 14-14h170.46l-12.675 35.169-171.785.001zm0 33.17h172.26l14.771 30.119h-187.031zm14 165.83c-7.72 0-14-6.28-14-14v-109.712h192.917l13.219 26.952-34.056 53.883c-17.855 9.901-32.546 24.835-42.146 42.876h-115.934zm209 142.671c-51.473 0-93.35-41.876-93.35-93.349s41.877-93.349 93.35-93.349 93.349 41.876 93.349 93.349-41.876 93.349-93.349 93.349zm223-156.671c0 7.72-6.28 14-14 14h-115.935c-13.293-24.983-36.348-44.014-64.047-51.961l26.054-41.223c1.113-1.762 1.232-3.976.314-5.848l-12.104-24.68h179.718zm0-121.712h-185.603l-14.772-30.119 200.375-.002zm0-42.121-201.46.002 12.676-35.169h174.784c7.72 0 14 6.28 14 14z"/><path d="m243.485 319.487 32.757-32.757c2.344-2.343 2.344-6.142 0-8.485-2.342-2.343-6.143-2.343-8.484 0l-32.758 32.758-32.758-32.758c-2.342-2.343-6.143-2.343-8.484 0-2.344 2.343-2.344 6.142 0 8.485l32.757 32.757-32.757 32.757c-2.344 2.343-2.344 6.142 0 8.485 2.342 2.343 6.142 2.343 8.484 0l32.758-32.757 32.758 32.758c2.342 2.343 6.142 2.343 8.484 0 2.344-2.343 2.344-6.142 0-8.485z"/></g></g></g></g></svg>